<?xml version="1.0" encoding="UTF-8" standalone="no"?><svg xmlns="http://www.w3.org/2000/svg" xmlns:xlink="http://www.w3.org/1999/xlink" contentScriptType="application/ecmascript" contentStyleType="text/css" height="483px" preserveAspectRatio="none" style="width:3025px;height:483px;" version="1.1" viewBox="0 0 3025 483" width="3025px" zoomAndPan="magnify"><defs><filter height="300%" id="f1mrgq6hnhqopr" width="300%" x="-1" y="-1"><feGaussianBlur result="blurOut" stdDeviation="2.0"/><feColorMatrix in="blurOut" result="blurOut2" type="matrix" values="0 0 0 0 0 0 0 0 0 0 0 0 0 0 0 0 0 0 .4 0"/><feOffset dx="4.0" dy="4.0" in="blurOut2" result="blurOut3"/><feBlend in="SourceGraphic" in2="blurOut3" mode="normal"/></filter></defs><g><text fill="#000000" font-family="sans-serif" font-size="18" lengthAdjust="spacingAndGlyphs" textLength="145" x="1443.5" y="16.708">research_engine</text><!--MD5=[d1d4d0d8b376dfa483ec8b5d45c60015]
class BaseProvider--><rect fill="#FEFECE" filter="url(#f1mrgq6hnhqopr)" height="86.4141" id="BaseProvider" style="stroke: #A80036; stroke-width: 1.5;" width="520" x="1676" y="220.4531"/><ellipse cx="1890.75" cy="236.4531" fill="#ADD1B2" rx="11" ry="11" style="stroke: #A80036; stroke-width: 1.0;"/><path d="M1893.7188,242.0938 Q1893.1406,242.3906 1892.5,242.5313 Q1891.8594,242.6875 1891.1563,242.6875 Q1888.6563,242.6875 1887.3281,241.0469 Q1886.0156,239.3906 1886.0156,236.2656 Q1886.0156,233.1406 1887.3281,231.4844 Q1888.6563,229.8281 1891.1563,229.8281 Q1891.8594,229.8281 1892.5,229.9844 Q1893.1563,230.1406 1893.7188,230.4375 L1893.7188,233.1563 Q1893.0938,232.5781 1892.5,232.3125 Q1891.9063,232.0313 1891.2813,232.0313 Q1889.9375,232.0313 1889.25,233.1094 Q1888.5625,234.1719 1888.5625,236.2656 Q1888.5625,238.3594 1889.25,239.4375 Q1889.9375,240.5 1891.2813,240.5 Q1891.9063,240.5 1892.5,240.2344 Q1893.0938,239.9531 1893.7188,239.375 L1893.7188,242.0938 Z "/><text fill="#000000" font-family="sans-serif" font-size="12" lengthAdjust="spacingAndGlyphs" textLength="82" x="1911.25" y="240.6074">BaseProvider</text><line style="stroke: #A80036; stroke-width: 1.5;" x1="1677" x2="2195" y1="252.4531" y2="252.4531"/><line style="stroke: #A80036; stroke-width: 1.5;" x1="1677" x2="2195" y1="260.4531" y2="260.4531"/><text fill="#000000" font-family="sans-serif" font-size="11" lengthAdjust="spacingAndGlyphs" textLength="508" x="1682" y="274.6636">+search(query: str, max_results: int, from_year: int | None, until_year: int | None) -&gt; Any</text><text fill="#000000" font-family="sans-serif" font-size="11" lengthAdjust="spacingAndGlyphs" textLength="251" x="1682" y="287.4683">+is_enabled(provider_manager: Any) -&gt; Any</text><text fill="#000000" font-family="sans-serif" font-size="11" lengthAdjust="spacingAndGlyphs" textLength="232" x="1682" y="300.2729">+api_key(provider_manager: Any) -&gt; Any</text><!--MD5=[e7f55e20106e9fd7b24d46e380d1e628]
class Deduplicator--><rect fill="#FEFECE" filter="url(#f1mrgq6hnhqopr)" height="60.8047" id="Deduplicator" style="stroke: #A80036; stroke-width: 1.5;" width="231" x="34.5" y="54.4531"/><ellipse cx="105.75" cy="70.4531" fill="#ADD1B2" rx="11" ry="11" style="stroke: #A80036; stroke-width: 1.0;"/><path d="M108.7188,76.0938 Q108.1406,76.3906 107.5,76.5313 Q106.8594,76.6875 106.1563,76.6875 Q103.6563,76.6875 102.3281,75.0469 Q101.0156,73.3906 101.0156,70.2656 Q101.0156,67.1406 102.3281,65.4844 Q103.6563,63.8281 106.1563,63.8281 Q106.8594,63.8281 107.5,63.9844 Q108.1563,64.1406 108.7188,64.4375 L108.7188,67.1563 Q108.0938,66.5781 107.5,66.3125 Q106.9063,66.0313 106.2813,66.0313 Q104.9375,66.0313 104.25,67.1094 Q103.5625,68.1719 103.5625,70.2656 Q103.5625,72.3594 104.25,73.4375 Q104.9375,74.5 106.2813,74.5 Q106.9063,74.5 107.5,74.2344 Q108.0938,73.9531 108.7188,73.375 L108.7188,76.0938 Z "/><text fill="#000000" font-family="sans-serif" font-size="12" lengthAdjust="spacingAndGlyphs" textLength="80" x="126.25" y="74.6074">Deduplicator</text><line style="stroke: #A80036; stroke-width: 1.5;" x1="35.5" x2="264.5" y1="86.4531" y2="86.4531"/><line style="stroke: #A80036; stroke-width: 1.5;" x1="35.5" x2="264.5" y1="94.4531" y2="94.4531"/><text fill="#000000" font-family="sans-serif" font-size="11" lengthAdjust="spacingAndGlyphs" textLength="219" x="40.5" y="108.6636">+deduplicate(publications: Any) -&gt; Any</text><!--MD5=[8d1fad87c4338c8367d2cb403c347bfe]
class FusionEngine--><rect fill="#FEFECE" filter="url(#f1mrgq6hnhqopr)" height="86.4141" id="FusionEngine" style="stroke: #A80036; stroke-width: 1.5;" width="253" x="300.5" y="41.9531"/><ellipse cx="380.75" cy="57.9531" fill="#ADD1B2" rx="11" ry="11" style="stroke: #A80036; stroke-width: 1.0;"/><path d="M383.7188,63.5938 Q383.1406,63.8906 382.5,64.0313 Q381.8594,64.1875 381.1563,64.1875 Q378.6563,64.1875 377.3281,62.5469 Q376.0156,60.8906 376.0156,57.7656 Q376.0156,54.6406 377.3281,52.9844 Q378.6563,51.3281 381.1563,51.3281 Q381.8594,51.3281 382.5,51.4844 Q383.1563,51.6406 383.7188,51.9375 L383.7188,54.6563 Q383.0938,54.0781 382.5,53.8125 Q381.9063,53.5313 381.2813,53.5313 Q379.9375,53.5313 379.25,54.6094 Q378.5625,55.6719 378.5625,57.7656 Q378.5625,59.8594 379.25,60.9375 Q379.9375,62 381.2813,62 Q381.9063,62 382.5,61.7344 Q383.0938,61.4531 383.7188,60.875 L383.7188,63.5938 Z "/><text fill="#000000" font-family="sans-serif" font-size="12" lengthAdjust="spacingAndGlyphs" textLength="84" x="401.25" y="62.1074">FusionEngine</text><line style="stroke: #A80036; stroke-width: 1.5;" x1="301.5" x2="552.5" y1="73.9531" y2="73.9531"/><line style="stroke: #A80036; stroke-width: 1.5;" x1="301.5" x2="552.5" y1="81.9531" y2="81.9531"/><text fill="#000000" font-family="sans-serif" font-size="11" lengthAdjust="spacingAndGlyphs" textLength="221" x="306.5" y="96.1636">+_dict_to_publication(data: Any) -&gt; Any</text><text fill="#000000" font-family="sans-serif" font-size="11" lengthAdjust="spacingAndGlyphs" textLength="241" x="306.5" y="108.9683">+_publication_to_flat_dict(pub: Any) -&gt; Any</text><text fill="#000000" font-family="sans-serif" font-size="11" lengthAdjust="spacingAndGlyphs" textLength="226" x="306.5" y="121.7729">+merge(existing: Any, new: Any) -&gt; Any</text><!--MD5=[95f79e392c56b0b5bd4fba343f69855f]
class MergeStrategies--><rect fill="#FEFECE" filter="url(#f1mrgq6hnhqopr)" height="112.0234" id="MergeStrategies" style="stroke: #A80036; stroke-width: 1.5;" width="265" x="588.5" y="28.9531"/><ellipse cx="664.75" cy="44.9531" fill="#ADD1B2" rx="11" ry="11" style="stroke: #A80036; stroke-width: 1.0;"/><path d="M667.7188,50.5938 Q667.1406,50.8906 666.5,51.0313 Q665.8594,51.1875 665.1563,51.1875 Q662.6563,51.1875 661.3281,49.5469 Q660.0156,47.8906 660.0156,44.7656 Q660.0156,41.6406 661.3281,39.9844 Q662.6563,38.3281 665.1563,38.3281 Q665.8594,38.3281 666.5,38.4844 Q667.1563,38.6406 667.7188,38.9375 L667.7188,41.6563 Q667.0938,41.0781 666.5,40.8125 Q665.9063,40.5313 665.2813,40.5313 Q663.9375,40.5313 663.25,41.6094 Q662.5625,42.6719 662.5625,44.7656 Q662.5625,46.8594 663.25,47.9375 Q663.9375,49 665.2813,49 Q665.9063,49 666.5,48.7344 Q667.0938,48.4531 667.7188,47.875 L667.7188,50.5938 Z "/><text fill="#000000" font-family="sans-serif" font-size="12" lengthAdjust="spacingAndGlyphs" textLength="104" x="685.25" y="49.1074">MergeStrategies</text><line style="stroke: #A80036; stroke-width: 1.5;" x1="589.5" x2="852.5" y1="60.9531" y2="60.9531"/><line style="stroke: #A80036; stroke-width: 1.5;" x1="589.5" x2="852.5" y1="68.9531" y2="68.9531"/><text fill="#000000" font-family="sans-serif" font-size="11" lengthAdjust="spacingAndGlyphs" textLength="253" x="594.5" y="83.1636">+first_non_empty(old: Any, new: Any) -&gt; Any</text><text fill="#000000" font-family="sans-serif" font-size="11" lengthAdjust="spacingAndGlyphs" textLength="204" x="594.5" y="95.9683">+longest(old: Any, new: Any) -&gt; Any</text><text fill="#000000" font-family="sans-serif" font-size="11" lengthAdjust="spacingAndGlyphs" textLength="218" x="594.5" y="108.7729">+maximum(old: Any, new: Any) -&gt; Any</text><text fill="#000000" font-family="sans-serif" font-size="11" lengthAdjust="spacingAndGlyphs" textLength="193" x="594.5" y="121.5776">+union(old: Any, new: Any) -&gt; Any</text><text fill="#000000" font-family="sans-serif" font-size="11" lengthAdjust="spacingAndGlyphs" textLength="215" x="594.5" y="134.3823">+overwrite(old: Any, new: Any) -&gt; Any</text><!--MD5=[52de2a8bba1e55f410541bc5f0542349]
class ProviderManager--><rect fill="#FEFECE" filter="url(#f1mrgq6hnhqopr)" height="124.8281" id="ProviderManager" style="stroke: #A80036; stroke-width: 1.5;" width="206" x="47" y="200.9531"/><ellipse cx="92.75" cy="216.9531" fill="#ADD1B2" rx="11" ry="11" style="stroke: #A80036; stroke-width: 1.0;"/><path d="M95.7188,222.5938 Q95.1406,222.8906 94.5,223.0313 Q93.8594,223.1875 93.1563,223.1875 Q90.6563,223.1875 89.3281,221.5469 Q88.0156,219.8906 88.0156,216.7656 Q88.0156,213.6406 89.3281,211.9844 Q90.6563,210.3281 93.1563,210.3281 Q93.8594,210.3281 94.5,210.4844 Q95.1563,210.6406 95.7188,210.9375 L95.7188,213.6563 Q95.0938,213.0781 94.5,212.8125 Q93.9063,212.5313 93.2813,212.5313 Q91.9375,212.5313 91.25,213.6094 Q90.5625,214.6719 90.5625,216.7656 Q90.5625,218.8594 91.25,219.9375 Q91.9375,221 93.2813,221 Q93.9063,221 94.5,220.7344 Q95.0938,220.4531 95.7188,219.875 L95.7188,222.5938 Z "/><text fill="#000000" font-family="sans-serif" font-size="12" lengthAdjust="spacingAndGlyphs" textLength="106" x="113.25" y="221.1074">ProviderManager</text><line style="stroke: #A80036; stroke-width: 1.5;" x1="48" x2="252" y1="232.9531" y2="232.9531"/><line style="stroke: #A80036; stroke-width: 1.5;" x1="48" x2="252" y1="240.9531" y2="240.9531"/><text fill="#000000" font-family="sans-serif" font-size="11" lengthAdjust="spacingAndGlyphs" textLength="75" x="53" y="255.1636">+list() -&gt; Any</text><text fill="#000000" font-family="sans-serif" font-size="11" lengthAdjust="spacingAndGlyphs" textLength="126" x="53" y="267.9683">+list_enabled() -&gt; Any</text><text fill="#000000" font-family="sans-serif" font-size="11" lengthAdjust="spacingAndGlyphs" textLength="167" x="53" y="280.7729">+get(provider_id: Any) -&gt; Any</text><text fill="#000000" font-family="sans-serif" font-size="11" lengthAdjust="spacingAndGlyphs" textLength="183" x="53" y="293.5776">+exists(provider_id: Any) -&gt; Any</text><text fill="#000000" font-family="sans-serif" font-size="11" lengthAdjust="spacingAndGlyphs" textLength="194" x="53" y="306.3823">+enabled(provider_id: Any) -&gt; Any</text><text fill="#000000" font-family="sans-serif" font-size="11" lengthAdjust="spacingAndGlyphs" textLength="191" x="53" y="319.187">+api_key(provider_id: Any) -&gt; Any</text><!--MD5=[c3a512588c3fca5032be5a5f34d7e11d]
class ProviderRegistry--><rect fill="#FEFECE" filter="url(#f1mrgq6hnhqopr)" height="99.2188" id="ProviderRegistry" style="stroke: #A80036; stroke-width: 1.5;" width="179" x="288.5" y="213.9531"/><ellipse cx="324.2" cy="229.9531" fill="#ADD1B2" rx="11" ry="11" style="stroke: #A80036; stroke-width: 1.0;"/><path d="M327.1688,235.5938 Q326.5906,235.8906 325.95,236.0313 Q325.3094,236.1875 324.6063,236.1875 Q322.1063,236.1875 320.7781,234.5469 Q319.4656,232.8906 319.4656,229.7656 Q319.4656,226.6406 320.7781,224.9844 Q322.1063,223.3281 324.6063,223.3281 Q325.3094,223.3281 325.95,223.4844 Q326.6063,223.6406 327.1688,223.9375 L327.1688,226.6563 Q326.5438,226.0781 325.95,225.8125 Q325.3563,225.5313 324.7313,225.5313 Q323.3875,225.5313 322.7,226.6094 Q322.0125,227.6719 322.0125,229.7656 Q322.0125,231.8594 322.7,232.9375 Q323.3875,234 324.7313,234 Q325.3563,234 325.95,233.7344 Q326.5438,233.4531 327.1688,232.875 L327.1688,235.5938 Z "/><text fill="#000000" font-family="sans-serif" font-size="12" lengthAdjust="spacingAndGlyphs" textLength="101" x="342.8" y="234.1074">ProviderRegistry</text><line style="stroke: #A80036; stroke-width: 1.5;" x1="289.5" x2="466.5" y1="245.9531" y2="245.9531"/><line style="stroke: #A80036; stroke-width: 1.5;" x1="289.5" x2="466.5" y1="253.9531" y2="253.9531"/><text fill="#000000" font-family="sans-serif" font-size="11" lengthAdjust="spacingAndGlyphs" textLength="99" x="294.5" y="268.1636">+__init__() -&gt; Any</text><text fill="#000000" font-family="sans-serif" font-size="11" lengthAdjust="spacingAndGlyphs" textLength="112" x="294.5" y="280.9683">+_discover() -&gt; Any</text><text fill="#000000" font-family="sans-serif" font-size="11" lengthAdjust="spacingAndGlyphs" textLength="167" x="294.5" y="293.7729">+get(provider_id: Any) -&gt; Any</text><text fill="#000000" font-family="sans-serif" font-size="11" lengthAdjust="spacingAndGlyphs" textLength="75" x="294.5" y="306.5776">+list() -&gt; Any</text><!--MD5=[bbdfacbc760a6c0eddd56c3e88377591]
class CrossrefProvider--><rect fill="#FEFECE" filter="url(#f1mrgq6hnhqopr)" height="60.8047" id="CrossrefProvider" style="stroke: #A80036; stroke-width: 1.5;" width="520" x="889" y="54.4531"/><ellipse cx="1093.25" cy="70.4531" fill="#ADD1B2" rx="11" ry="11" style="stroke: #A80036; stroke-width: 1.0;"/><path d="M1096.2188,76.0938 Q1095.6406,76.3906 1095,76.5313 Q1094.3594,76.6875 1093.6563,76.6875 Q1091.1563,76.6875 1089.8281,75.0469 Q1088.5156,73.3906 1088.5156,70.2656 Q1088.5156,67.1406 1089.8281,65.4844 Q1091.1563,63.8281 1093.6563,63.8281 Q1094.3594,63.8281 1095,63.9844 Q1095.6563,64.1406 1096.2188,64.4375 L1096.2188,67.1563 Q1095.5938,66.5781 1095,66.3125 Q1094.4063,66.0313 1093.7813,66.0313 Q1092.4375,66.0313 1091.75,67.1094 Q1091.0625,68.1719 1091.0625,70.2656 Q1091.0625,72.3594 1091.75,73.4375 Q1092.4375,74.5 1093.7813,74.5 Q1094.4063,74.5 1095,74.2344 Q1095.5938,73.9531 1096.2188,73.375 L1096.2188,76.0938 Z "/><text fill="#000000" font-family="sans-serif" font-size="12" lengthAdjust="spacingAndGlyphs" textLength="103" x="1113.75" y="74.6074">CrossrefProvider</text><line style="stroke: #A80036; stroke-width: 1.5;" x1="890" x2="1408" y1="86.4531" y2="86.4531"/><line style="stroke: #A80036; stroke-width: 1.5;" x1="890" x2="1408" y1="94.4531" y2="94.4531"/><text fill="#000000" font-family="sans-serif" font-size="11" lengthAdjust="spacingAndGlyphs" textLength="508" x="895" y="108.6636">+search(query: str, max_results: int, from_year: int | None, until_year: int | None) -&gt; dict</text><!--MD5=[23401883c6eddc3c7cebddbf93371fa0]
class DummyProvider--><rect fill="#FEFECE" filter="url(#f1mrgq6hnhqopr)" height="60.8047" id="DummyProvider" style="stroke: #A80036; stroke-width: 1.5;" width="460" x="1444" y="54.4531"/><ellipse cx="1621.75" cy="70.4531" fill="#ADD1B2" rx="11" ry="11" style="stroke: #A80036; stroke-width: 1.0;"/><path d="M1624.7188,76.0938 Q1624.1406,76.3906 1623.5,76.5313 Q1622.8594,76.6875 1622.1563,76.6875 Q1619.6563,76.6875 1618.3281,75.0469 Q1617.0156,73.3906 1617.0156,70.2656 Q1617.0156,67.1406 1618.3281,65.4844 Q1619.6563,63.8281 1622.1563,63.8281 Q1622.8594,63.8281 1623.5,63.9844 Q1624.1563,64.1406 1624.7188,64.4375 L1624.7188,67.1563 Q1624.0938,66.5781 1623.5,66.3125 Q1622.9063,66.0313 1622.2813,66.0313 Q1620.9375,66.0313 1620.25,67.1094 Q1619.5625,68.1719 1619.5625,70.2656 Q1619.5625,72.3594 1620.25,73.4375 Q1620.9375,74.5 1622.2813,74.5 Q1622.9063,74.5 1623.5,74.2344 Q1624.0938,73.9531 1624.7188,73.375 L1624.7188,76.0938 Z "/><text fill="#000000" font-family="sans-serif" font-size="12" lengthAdjust="spacingAndGlyphs" textLength="96" x="1642.25" y="74.6074">DummyProvider</text><line style="stroke: #A80036; stroke-width: 1.5;" x1="1445" x2="1903" y1="86.4531" y2="86.4531"/><line style="stroke: #A80036; stroke-width: 1.5;" x1="1445" x2="1903" y1="94.4531" y2="94.4531"/><text fill="#000000" font-family="sans-serif" font-size="11" lengthAdjust="spacingAndGlyphs" textLength="448" x="1450" y="108.6636">+search(query: Any, max_results: Any, from_year: Any, until_year: Any) -&gt; Any</text><!--MD5=[3086234b842d73edb5c8180de6d100ec]
class OpenAlexProvider--><rect fill="#FEFECE" filter="url(#f1mrgq6hnhqopr)" height="60.8047" id="OpenAlexProvider" style="stroke: #A80036; stroke-width: 1.5;" width="520" x="1939" y="54.4531"/><ellipse cx="2140.25" cy="70.4531" fill="#ADD1B2" rx="11" ry="11" style="stroke: #A80036; stroke-width: 1.0;"/><path d="M2143.2188,76.0938 Q2142.6406,76.3906 2142,76.5313 Q2141.3594,76.6875 2140.6563,76.6875 Q2138.1563,76.6875 2136.8281,75.0469 Q2135.5156,73.3906 2135.5156,70.2656 Q2135.5156,67.1406 2136.8281,65.4844 Q2138.1563,63.8281 2140.6563,63.8281 Q2141.3594,63.8281 2142,63.9844 Q2142.6563,64.1406 2143.2188,64.4375 L2143.2188,67.1563 Q2142.5938,66.5781 2142,66.3125 Q2141.4063,66.0313 2140.7813,66.0313 Q2139.4375,66.0313 2138.75,67.1094 Q2138.0625,68.1719 2138.0625,70.2656 Q2138.0625,72.3594 2138.75,73.4375 Q2139.4375,74.5 2140.7813,74.5 Q2141.4063,74.5 2142,74.2344 Q2142.5938,73.9531 2143.2188,73.375 L2143.2188,76.0938 Z "/><text fill="#000000" font-family="sans-serif" font-size="12" lengthAdjust="spacingAndGlyphs" textLength="109" x="2160.75" y="74.6074">OpenAlexProvider</text><line style="stroke: #A80036; stroke-width: 1.5;" x1="1940" x2="2458" y1="86.4531" y2="86.4531"/><line style="stroke: #A80036; stroke-width: 1.5;" x1="1940" x2="2458" y1="94.4531" y2="94.4531"/><text fill="#000000" font-family="sans-serif" font-size="11" lengthAdjust="spacingAndGlyphs" textLength="508" x="1945" y="108.6636">+search(query: str, max_results: int, from_year: int | None, until_year: int | None) -&gt; dict</text><!--MD5=[ccbfe3b97934991c0b3edd78fca443d9]
class ScopusProvider--><rect fill="#FEFECE" filter="url(#f1mrgq6hnhqopr)" height="60.8047" id="ScopusProvider" style="stroke: #A80036; stroke-width: 1.5;" width="520" x="2494" y="54.4531"/><ellipse cx="2701.25" cy="70.4531" fill="#ADD1B2" rx="11" ry="11" style="stroke: #A80036; stroke-width: 1.0;"/><path d="M2704.2188,76.0938 Q2703.6406,76.3906 2703,76.5313 Q2702.3594,76.6875 2701.6563,76.6875 Q2699.1563,76.6875 2697.8281,75.0469 Q2696.5156,73.3906 2696.5156,70.2656 Q2696.5156,67.1406 2697.8281,65.4844 Q2699.1563,63.8281 2701.6563,63.8281 Q2702.3594,63.8281 2703,63.9844 Q2703.6563,64.1406 2704.2188,64.4375 L2704.2188,67.1563 Q2703.5938,66.5781 2703,66.3125 Q2702.4063,66.0313 2701.7813,66.0313 Q2700.4375,66.0313 2699.75,67.1094 Q2699.0625,68.1719 2699.0625,70.2656 Q2699.0625,72.3594 2699.75,73.4375 Q2700.4375,74.5 2701.7813,74.5 Q2702.4063,74.5 2703,74.2344 Q2703.5938,73.9531 2704.2188,73.375 L2704.2188,76.0938 Z "/><text fill="#000000" font-family="sans-serif" font-size="12" lengthAdjust="spacingAndGlyphs" textLength="97" x="2721.75" y="74.6074">ScopusProvider</text><line style="stroke: #A80036; stroke-width: 1.5;" x1="2495" x2="3013" y1="86.4531" y2="86.4531"/><line style="stroke: #A80036; stroke-width: 1.5;" x1="2495" x2="3013" y1="94.4531" y2="94.4531"/><text fill="#000000" font-family="sans-serif" font-size="11" lengthAdjust="spacingAndGlyphs" textLength="508" x="2500" y="108.6636">+search(query: str, max_results: int, from_year: int | None, until_year: int | None) -&gt; dict</text><!--MD5=[aa0413ebcb3d9bdac345f8a00fac6760]
class QueryPlanner--><rect fill="#FEFECE" filter="url(#f1mrgq6hnhqopr)" height="99.2188" id="QueryPlanner" style="stroke: #A80036; stroke-width: 1.5;" width="225" x="502.5" y="213.9531"/><ellipse cx="568.75" cy="229.9531" fill="#ADD1B2" rx="11" ry="11" style="stroke: #A80036; stroke-width: 1.0;"/><path d="M571.7188,235.5938 Q571.1406,235.8906 570.5,236.0313 Q569.8594,236.1875 569.1563,236.1875 Q566.6563,236.1875 565.3281,234.5469 Q564.0156,232.8906 564.0156,229.7656 Q564.0156,226.6406 565.3281,224.9844 Q566.6563,223.3281 569.1563,223.3281 Q569.8594,223.3281 570.5,223.4844 Q571.1563,223.6406 571.7188,223.9375 L571.7188,226.6563 Q571.0938,226.0781 570.5,225.8125 Q569.9063,225.5313 569.2813,225.5313 Q567.9375,225.5313 567.25,226.6094 Q566.5625,227.6719 566.5625,229.7656 Q566.5625,231.8594 567.25,232.9375 Q567.9375,234 569.2813,234 Q569.9063,234 570.5,233.7344 Q571.0938,233.4531 571.7188,232.875 L571.7188,235.5938 Z "/><text fill="#000000" font-family="sans-serif" font-size="12" lengthAdjust="spacingAndGlyphs" textLength="84" x="589.25" y="234.1074">QueryPlanner</text><line style="stroke: #A80036; stroke-width: 1.5;" x1="503.5" x2="726.5" y1="245.9531" y2="245.9531"/><line style="stroke: #A80036; stroke-width: 1.5;" x1="503.5" x2="726.5" y1="253.9531" y2="253.9531"/><text fill="#000000" font-family="sans-serif" font-size="11" lengthAdjust="spacingAndGlyphs" textLength="213" x="508.5" y="268.1636">+plan(query: str, provider: str) -&gt; str</text><text fill="#000000" font-family="sans-serif" font-size="11" lengthAdjust="spacingAndGlyphs" textLength="159" x="508.5" y="280.9683">+_tokenize(text: Any) -&gt; Any</text><text fill="#000000" font-family="sans-serif" font-size="11" lengthAdjust="spacingAndGlyphs" textLength="165" x="508.5" y="293.7729">+_scopus(query: Any) -&gt; Any</text><text fill="#000000" font-family="sans-serif" font-size="11" lengthAdjust="spacingAndGlyphs" textLength="148" x="508.5" y="306.5776">+_ieee(query: Any) -&gt; Any</text><!--MD5=[8a078ff4abd1c331520e0f0238cf026b]
class Ranker--><rect fill="#FEFECE" filter="url(#f1mrgq6hnhqopr)" height="73.6094" id="Ranker" style="stroke: #A80036; stroke-width: 1.5;" width="288" x="6" y="391.9531"/><ellipse cx="123.75" cy="407.9531" fill="#ADD1B2" rx="11" ry="11" style="stroke: #A80036; stroke-width: 1.0;"/><path d="M126.7188,413.5938 Q126.1406,413.8906 125.5,414.0313 Q124.8594,414.1875 124.1563,414.1875 Q121.6563,414.1875 120.3281,412.5469 Q119.0156,410.8906 119.0156,407.7656 Q119.0156,404.6406 120.3281,402.9844 Q121.6563,401.3281 124.1563,401.3281 Q124.8594,401.3281 125.5,401.4844 Q126.1563,401.6406 126.7188,401.9375 L126.7188,404.6563 Q126.0938,404.0781 125.5,403.8125 Q124.9063,403.5313 124.2813,403.5313 Q122.9375,403.5313 122.25,404.6094 Q121.5625,405.6719 121.5625,407.7656 Q121.5625,409.8594 122.25,410.9375 Q122.9375,412 124.2813,412 Q124.9063,412 125.5,411.7344 Q126.0938,411.4531 126.7188,410.875 L126.7188,413.5938 Z "/><text fill="#000000" font-family="sans-serif" font-size="12" lengthAdjust="spacingAndGlyphs" textLength="44" x="144.25" y="412.1074">Ranker</text><line style="stroke: #A80036; stroke-width: 1.5;" x1="7" x2="293" y1="423.9531" y2="423.9531"/><line style="stroke: #A80036; stroke-width: 1.5;" x1="7" x2="293" y1="431.9531" y2="431.9531"/><text fill="#000000" font-family="sans-serif" font-size="11" lengthAdjust="spacingAndGlyphs" textLength="179" x="12" y="446.1636">+score(publication: Any) -&gt; Any</text><text fill="#000000" font-family="sans-serif" font-size="11" lengthAdjust="spacingAndGlyphs" textLength="276" x="12" y="458.9683">+rank(publications: Any, sort_mode: Any) -&gt; Any</text><!--MD5=[8fa01616ae8f0feeee443994c1bd4ea1]
class SearchEngine--><rect fill="#FEFECE" filter="url(#f1mrgq6hnhqopr)" height="86.4141" id="SearchEngine" style="stroke: #A80036; stroke-width: 1.5;" width="784" x="329" y="385.9531"/><ellipse cx="673.25" cy="401.9531" fill="#ADD1B2" rx="11" ry="11" style="stroke: #A80036; stroke-width: 1.0;"/><path d="M676.2188,407.5938 Q675.6406,407.8906 675,408.0313 Q674.3594,408.1875 673.6563,408.1875 Q671.1563,408.1875 669.8281,406.5469 Q668.5156,404.8906 668.5156,401.7656 Q668.5156,398.6406 669.8281,396.9844 Q671.1563,395.3281 673.6563,395.3281 Q674.3594,395.3281 675,395.4844 Q675.6563,395.6406 676.2188,395.9375 L676.2188,398.6563 Q675.5938,398.0781 675,397.8125 Q674.4063,397.5313 673.7813,397.5313 Q672.4375,397.5313 671.75,398.6094 Q671.0625,399.6719 671.0625,401.7656 Q671.0625,403.8594 671.75,404.9375 Q672.4375,406 673.7813,406 Q674.4063,406 675,405.7344 Q675.5938,405.4531 676.2188,404.875 L676.2188,407.5938 Z "/><text fill="#000000" font-family="sans-serif" font-size="12" lengthAdjust="spacingAndGlyphs" textLength="87" x="693.75" y="406.1074">SearchEngine</text><line style="stroke: #A80036; stroke-width: 1.5;" x1="330" x2="1112" y1="417.9531" y2="417.9531"/><line style="stroke: #A80036; stroke-width: 1.5;" x1="330" x2="1112" y1="425.9531" y2="425.9531"/><text fill="#000000" font-family="sans-serif" font-size="11" lengthAdjust="spacingAndGlyphs" textLength="99" x="335" y="440.1636">+__init__() -&gt; Any</text><text fill="#000000" font-family="sans-serif" font-size="11" lengthAdjust="spacingAndGlyphs" textLength="587" x="335" y="452.9683">+search(provider: str, query: str, max_results: int, from_year: int | None, until_year: int | None) -&gt; Any</text><text fill="#000000" font-family="sans-serif" font-size="11" lengthAdjust="spacingAndGlyphs" textLength="772" x="335" y="465.7729">+search_all(query: str, max_results: int, from_year: int | None, until_year: int | None, providers: list[str] | None, sort_mode: str) -&gt; Any</text><!--MD5=[93722cc4b1d674ad56dd891fe1a1ac79]
link CrossrefProvider to BaseProvider--><path d="M1280.73,115.4931 C1402.97,142.9131 1586.89,184.1631 1728.8,215.9831 " fill="none" id="CrossrefProvider-&gt;BaseProvider" style="stroke: #A80036; stroke-width: 1.0;"/><polygon fill="none" points="1730.55,209.2031,1748.53,220.4131,1727.48,222.8631,1730.55,209.2031" style="stroke: #A80036; stroke-width: 1.0;"/><text fill="#000000" font-family="sans-serif" font-size="13" lengthAdjust="spacingAndGlyphs" textLength="8" x="1299.0743" y="135.4396">1</text><text fill="#000000" font-family="sans-serif" font-size="13" lengthAdjust="spacingAndGlyphs" textLength="8" x="1710.0145" y="209.4028">1</text><!--MD5=[0c8d540af82b61b7f7042a03cd1158c6]
link DummyProvider to BaseProvider--><path d="M1717.85,115.4931 C1755.65,140.9631 1811.17,178.3631 1856.74,209.0631 " fill="none" id="DummyProvider-&gt;BaseProvider" style="stroke: #A80036; stroke-width: 1.0;"/><polygon fill="none" points="1860.67,203.2631,1873.34,220.2431,1852.85,214.8731,1860.67,203.2631" style="stroke: #A80036; stroke-width: 1.0;"/><text fill="#000000" font-family="sans-serif" font-size="13" lengthAdjust="spacingAndGlyphs" textLength="8" x="1718.0691" y="135.4396">1</text><text fill="#000000" font-family="sans-serif" font-size="13" lengthAdjust="spacingAndGlyphs" textLength="8" x="1855.1327" y="209.5235">1</text><!--MD5=[027530e0d0b16d0926f00a1bd46bf2db]
link OpenAlexProvider to BaseProvider--><path d="M2154.98,115.4931 C2117.03,140.9631 2061.3,178.3631 2015.56,209.0631 " fill="none" id="OpenAlexProvider-&gt;BaseProvider" style="stroke: #A80036; stroke-width: 1.0;"/><polygon fill="none" points="2019.4,214.9131,1998.9,220.2431,2011.6,203.2831,2019.4,214.9131" style="stroke: #A80036; stroke-width: 1.0;"/><text fill="#000000" font-family="sans-serif" font-size="13" lengthAdjust="spacingAndGlyphs" textLength="8" x="2137.0759" y="135.4396">1</text><text fill="#000000" font-family="sans-serif" font-size="13" lengthAdjust="spacingAndGlyphs" textLength="8" x="1999.9191" y="209.5235">1</text><!--MD5=[3373fe822076b2837aa137dc3fc60a20]
link ScopusProvider to BaseProvider--><path d="M2617.09,115.4931 C2489.77,142.9631 2298.08,184.3231 2150.46,216.1831 " fill="none" id="ScopusProvider-&gt;BaseProvider" style="stroke: #A80036; stroke-width: 1.0;"/><polygon fill="none" points="2151.88,223.0331,2130.85,220.4131,2148.93,209.3531,2151.88,223.0331" style="stroke: #A80036; stroke-width: 1.0;"/><text fill="#000000" font-family="sans-serif" font-size="13" lengthAdjust="spacingAndGlyphs" textLength="8" x="2580.0273" y="135.4396">1</text><text fill="#000000" font-family="sans-serif" font-size="13" lengthAdjust="spacingAndGlyphs" textLength="8" x="2153.2667" y="209.4028">1</text><!--MD5=[37601d3374d2c273285e68ef9293925d]
link Deduplicator to FusionEngine--><!--MD5=[224337d38211e3b3c19bfcffcc616e2e]
link FusionEngine to MergeStrategies--><!--MD5=[ae607d292e1f719ef94b1ea93351c3b1]
link Deduplicator to ProviderManager--><!--MD5=[2ce2ae31f6f65b1520f7c95395ffd624]
link ProviderManager to ProviderRegistry--><!--MD5=[8991cebe62d5b9f43892202a5150651e]
link ProviderRegistry to QueryPlanner--><!--MD5=[76abef596be4a2aa5459438a269dfb7b]
link ProviderManager to Ranker--><!--MD5=[7489283771123da9c447d917191ac33e]
link Ranker to SearchEngine--><!--MD5=[7f0c0a0f6e3e84a6ada4210192cb5643]
@startuml
skinparam classAttributeIconSize 0

title research_engine

class BaseProvider {
  + search(query: str, max_results: int, from_year: int | None, until_year: int | None) -> Any
  + is_enabled(provider_manager: Any) -> Any
  + api_key(provider_manager: Any) -> Any
}

class Deduplicator {
  + deduplicate(publications: Any) -> Any
}

class FusionEngine {
  + _dict_to_publication(data: Any) -> Any
  + _publication_to_flat_dict(pub: Any) -> Any
  + merge(existing: Any, new: Any) -> Any
}

class MergeStrategies {
  + first_non_empty(old: Any, new: Any) -> Any
  + longest(old: Any, new: Any) -> Any
  + maximum(old: Any, new: Any) -> Any
  + union(old: Any, new: Any) -> Any
  + overwrite(old: Any, new: Any) -> Any
}

class ProviderManager {
  + list() -> Any
  + list_enabled() -> Any
  + get(provider_id: Any) -> Any
  + exists(provider_id: Any) -> Any
  + enabled(provider_id: Any) -> Any
  + api_key(provider_id: Any) -> Any
}

class ProviderRegistry {
  + __init__() -> Any
  + _discover() -> Any
  + get(provider_id: Any) -> Any
  + list() -> Any
}

class CrossrefProvider {
  + search(query: str, max_results: int, from_year: int | None, until_year: int | None) -> dict
}

class DummyProvider {
  + search(query: Any, max_results: Any, from_year: Any, until_year: Any) -> Any
}

class OpenAlexProvider {
  + search(query: str, max_results: int, from_year: int | None, until_year: int | None) -> dict
}

class ScopusProvider {
  + search(query: str, max_results: int, from_year: int | None, until_year: int | None) -> dict
}

class QueryPlanner {
  + plan(query: str, provider: str) -> str
  + _tokenize(text: Any) -> Any
  + _scopus(query: Any) -> Any
  + _ieee(query: Any) -> Any
}

class Ranker {
  + score(publication: Any) -> Any
  + rank(publications: Any, sort_mode: Any) -> Any
}

class SearchEngine {
  + __init__() -> Any
  + search(provider: str, query: str, max_results: int, from_year: int | None, until_year: int | None) -> Any
  + search_all(query: str, max_results: int, from_year: int | None, until_year: int | None, providers: list[str] | None, sort_mode: str) -> Any
}

CrossrefProvider "1" - -|> "1" BaseProvider
DummyProvider "1" - -|> "1" BaseProvider
OpenAlexProvider "1" - -|> "1" BaseProvider
ScopusProvider "1" - -|> "1" BaseProvider

@enduml

PlantUML version 1.2020.02(Sun Mar 01 10:22:07 UTC 2020)
(GPL source distribution)
Java Runtime: OpenJDK Runtime Environment
JVM: OpenJDK 64-Bit Server VM
Java Version: 11.0.31+11-post-1ubuntu1-22.04.2-Ubuntu
Operating System: Linux
Default Encoding: UTF-8
Language: es
Country: ES
--></g></svg>