<?xml version="1.0" encoding="UTF-8" standalone="no"?><svg xmlns="http://www.w3.org/2000/svg" xmlns:xlink="http://www.w3.org/1999/xlink" contentScriptType="application/ecmascript" contentStyleType="text/css" height="688px" preserveAspectRatio="none" style="width:1241px;height:688px;" version="1.1" viewBox="0 0 1241 688" width="1241px" zoomAndPan="magnify"><defs><filter height="300%" id="f1kotvyyyom2gb" width="300%" x="-1" y="-1"><feGaussianBlur result="blurOut" stdDeviation="2.0"/><feColorMatrix in="blurOut" result="blurOut2" type="matrix" values="0 0 0 0 0 0 0 0 0 0 0 0 0 0 0 0 0 0 .4 0"/><feOffset dx="4.0" dy="4.0" in="blurOut2" result="blurOut3"/><feBlend in="SourceGraphic" in2="blurOut3" mode="normal"/></filter></defs><g><line style="stroke: #A80036; stroke-width: 1.0; stroke-dasharray: 5.0,5.0;" x1="27" x2="27" y1="86.2969" y2="601.5547"/><line style="stroke: #A80036; stroke-width: 1.0; stroke-dasharray: 5.0,5.0;" x1="142" x2="142" y1="86.2969" y2="601.5547"/><line style="stroke: #A80036; stroke-width: 1.0; stroke-dasharray: 5.0,5.0;" x1="263" x2="263" y1="86.2969" y2="601.5547"/><line style="stroke: #A80036; stroke-width: 1.0; stroke-dasharray: 5.0,5.0;" x1="389" x2="389" y1="86.2969" y2="601.5547"/><line style="stroke: #A80036; stroke-width: 1.0; stroke-dasharray: 5.0,5.0;" x1="526" x2="526" y1="86.2969" y2="601.5547"/><line style="stroke: #A80036; stroke-width: 1.0; stroke-dasharray: 5.0,5.0;" x1="684" x2="684" y1="86.2969" y2="601.5547"/><line style="stroke: #A80036; stroke-width: 1.0; stroke-dasharray: 5.0,5.0;" x1="788" x2="788" y1="86.2969" y2="601.5547"/><line style="stroke: #A80036; stroke-width: 1.0; stroke-dasharray: 5.0,5.0;" x1="909" x2="909" y1="86.2969" y2="601.5547"/><line style="stroke: #A80036; stroke-width: 1.0; stroke-dasharray: 5.0,5.0;" x1="1040" x2="1040" y1="86.2969" y2="601.5547"/><line style="stroke: #A80036; stroke-width: 1.0; stroke-dasharray: 5.0,5.0;" x1="1174" x2="1174" y1="86.2969" y2="601.5547"/><text fill="#000000" font-family="sans-serif" font-size="14" lengthAdjust="spacingAndGlyphs" textLength="32" x="8" y="82.9951">User</text><ellipse cx="27" cy="13" fill="#FEFECE" filter="url(#f1kotvyyyom2gb)" rx="8" ry="8" style="stroke: #A80036; stroke-width: 2.0;"/><path d="M27,21 L27,48 M14,29 L40,29 M27,48 L14,63 M27,48 L40,63 " fill="none" filter="url(#f1kotvyyyom2gb)" style="stroke: #A80036; stroke-width: 2.0;"/><text fill="#000000" font-family="sans-serif" font-size="14" lengthAdjust="spacingAndGlyphs" textLength="32" x="8" y="613.5498">User</text><ellipse cx="27" cy="626.8516" fill="#FEFECE" filter="url(#f1kotvyyyom2gb)" rx="8" ry="8" style="stroke: #A80036; stroke-width: 2.0;"/><path d="M27,634.8516 L27,661.8516 M14,642.8516 L40,642.8516 M27,661.8516 L14,676.8516 M27,661.8516 L40,676.8516 " fill="none" filter="url(#f1kotvyyyom2gb)" style="stroke: #A80036; stroke-width: 2.0;"/><rect fill="#FEFECE" filter="url(#f1kotvyyyom2gb)" height="30.2969" style="stroke: #A80036; stroke-width: 1.5;" width="100" x="90" y="51"/><text fill="#000000" font-family="sans-serif" font-size="14" lengthAdjust="spacingAndGlyphs" textLength="86" x="97" y="70.9951">Open WebUI</text><rect fill="#FEFECE" filter="url(#f1kotvyyyom2gb)" height="30.2969" style="stroke: #A80036; stroke-width: 1.5;" width="100" x="90" y="600.5547"/><text fill="#000000" font-family="sans-serif" font-size="14" lengthAdjust="spacingAndGlyphs" textLength="86" x="97" y="620.5498">Open WebUI</text><rect fill="#FEFECE" filter="url(#f1kotvyyyom2gb)" height="30.2969" style="stroke: #A80036; stroke-width: 1.5;" width="114" x="204" y="51"/><text fill="#000000" font-family="sans-serif" font-size="14" lengthAdjust="spacingAndGlyphs" textLength="100" x="211" y="70.9951">Search Engine</text><rect fill="#FEFECE" filter="url(#f1kotvyyyom2gb)" height="30.2969" style="stroke: #A80036; stroke-width: 1.5;" width="114" x="204" y="600.5547"/><text fill="#000000" font-family="sans-serif" font-size="14" lengthAdjust="spacingAndGlyphs" textLength="100" x="211" y="620.5498">Search Engine</text><rect fill="#FEFECE" filter="url(#f1kotvyyyom2gb)" height="30.2969" style="stroke: #A80036; stroke-width: 1.5;" width="111" x="332" y="51"/><text fill="#000000" font-family="sans-serif" font-size="14" lengthAdjust="spacingAndGlyphs" textLength="97" x="339" y="70.9951">Query Planner</text><rect fill="#FEFECE" filter="url(#f1kotvyyyom2gb)" height="30.2969" style="stroke: #A80036; stroke-width: 1.5;" width="111" x="332" y="600.5547"/><text fill="#000000" font-family="sans-serif" font-size="14" lengthAdjust="spacingAndGlyphs" textLength="97" x="339" y="620.5498">Query Planner</text><rect fill="#FEFECE" filter="url(#f1kotvyyyom2gb)" height="30.2969" style="stroke: #A80036; stroke-width: 1.5;" width="134" x="457" y="51"/><text fill="#000000" font-family="sans-serif" font-size="14" lengthAdjust="spacingAndGlyphs" textLength="120" x="464" y="70.9951">Provider Manager</text><rect fill="#FEFECE" filter="url(#f1kotvyyyom2gb)" height="30.2969" style="stroke: #A80036; stroke-width: 1.5;" width="134" x="457" y="600.5547"/><text fill="#000000" font-family="sans-serif" font-size="14" lengthAdjust="spacingAndGlyphs" textLength="120" x="464" y="620.5498">Provider Manager</text><rect fill="#FEFECE" filter="url(#f1kotvyyyom2gb)" height="30.2969" style="stroke: #A80036; stroke-width: 1.5;" width="78" x="643" y="51"/><text fill="#000000" font-family="sans-serif" font-size="14" lengthAdjust="spacingAndGlyphs" textLength="64" x="650" y="70.9951">Providers</text><rect fill="#FEFECE" filter="url(#f1kotvyyyom2gb)" height="30.2969" style="stroke: #A80036; stroke-width: 1.5;" width="78" x="643" y="600.5547"/><text fill="#000000" font-family="sans-serif" font-size="14" lengthAdjust="spacingAndGlyphs" textLength="64" x="650" y="620.5498">Providers</text><rect fill="#FEFECE" filter="url(#f1kotvyyyom2gb)" height="30.2969" style="stroke: #A80036; stroke-width: 1.5;" width="102" x="735" y="51"/><text fill="#000000" font-family="sans-serif" font-size="14" lengthAdjust="spacingAndGlyphs" textLength="88" x="742" y="70.9951">Deduplicator</text><rect fill="#FEFECE" filter="url(#f1kotvyyyom2gb)" height="30.2969" style="stroke: #A80036; stroke-width: 1.5;" width="102" x="735" y="600.5547"/><text fill="#000000" font-family="sans-serif" font-size="14" lengthAdjust="spacingAndGlyphs" textLength="88" x="742" y="620.5498">Deduplicator</text><rect fill="#FEFECE" filter="url(#f1kotvyyyom2gb)" height="30.2969" style="stroke: #A80036; stroke-width: 1.5;" width="112" x="851" y="51"/><text fill="#000000" font-family="sans-serif" font-size="14" lengthAdjust="spacingAndGlyphs" textLength="98" x="858" y="70.9951">Fusion Engine</text><rect fill="#FEFECE" filter="url(#f1kotvyyyom2gb)" height="30.2969" style="stroke: #A80036; stroke-width: 1.5;" width="112" x="851" y="600.5547"/><text fill="#000000" font-family="sans-serif" font-size="14" lengthAdjust="spacingAndGlyphs" textLength="98" x="858" y="620.5498">Fusion Engine</text><rect fill="#FEFECE" filter="url(#f1kotvyyyom2gb)" height="30.2969" style="stroke: #A80036; stroke-width: 1.5;" width="122" x="977" y="51"/><text fill="#000000" font-family="sans-serif" font-size="14" lengthAdjust="spacingAndGlyphs" textLength="108" x="984" y="70.9951">Ranking Engine</text><rect fill="#FEFECE" filter="url(#f1kotvyyyom2gb)" height="30.2969" style="stroke: #A80036; stroke-width: 1.5;" width="122" x="977" y="600.5547"/><text fill="#000000" font-family="sans-serif" font-size="14" lengthAdjust="spacingAndGlyphs" textLength="108" x="984" y="620.5498">Ranking Engine</text><text fill="#000000" font-family="sans-serif" font-size="14" lengthAdjust="spacingAndGlyphs" textLength="116" x="1113" y="82.9951">Knowledge Base</text><path d="M1156,34 C1156,24 1174,24 1174,24 C1174,24 1192,24 1192,34 L1192,60 C1192,70 1174,70 1174,70 C1174,70 1156,70 1156,60 L1156,34 " fill="#FEFECE" filter="url(#f1kotvyyyom2gb)" style="stroke: #000000; stroke-width: 1.5;"/><path d="M1156,34 C1156,44 1174,44 1174,44 C1174,44 1192,44 1192,34 " fill="none" style="stroke: #000000; stroke-width: 1.5;"/><text fill="#000000" font-family="sans-serif" font-size="14" lengthAdjust="spacingAndGlyphs" textLength="116" x="1113" y="613.5498">Knowledge Base</text><path d="M1156,626.8516 C1156,616.8516 1174,616.8516 1174,616.8516 C1174,616.8516 1192,616.8516 1192,626.8516 L1192,652.8516 C1192,662.8516 1174,662.8516 1174,662.8516 C1174,662.8516 1156,662.8516 1156,652.8516 L1156,626.8516 " fill="#FEFECE" filter="url(#f1kotvyyyom2gb)" style="stroke: #000000; stroke-width: 1.5;"/><path d="M1156,626.8516 C1156,636.8516 1174,636.8516 1174,636.8516 C1174,636.8516 1192,636.8516 1192,626.8516 " fill="none" style="stroke: #000000; stroke-width: 1.5;"/><polygon fill="#A80036" points="130,113.4297,140,117.4297,130,121.4297,134,117.4297" style="stroke: #A80036; stroke-width: 1.0;"/><line style="stroke: #A80036; stroke-width: 1.0;" x1="27" x2="136" y1="117.4297" y2="117.4297"/><text fill="#000000" font-family="sans-serif" font-size="13" lengthAdjust="spacingAndGlyphs" textLength="86" x="34" y="112.3638">Submit query</text><polygon fill="#A80036" points="251,142.5625,261,146.5625,251,150.5625,255,146.5625" style="stroke: #A80036; stroke-width: 1.0;"/><line style="stroke: #A80036; stroke-width: 1.0;" x1="142" x2="257" y1="146.5625" y2="146.5625"/><text fill="#000000" font-family="sans-serif" font-size="13" lengthAdjust="spacingAndGlyphs" textLength="89" x="149" y="141.4966">search(query)</text><polygon fill="#A80036" points="377.5,171.6953,387.5,175.6953,377.5,179.6953,381.5,175.6953" style="stroke: #A80036; stroke-width: 1.0;"/><line style="stroke: #A80036; stroke-width: 1.0;" x1="263" x2="383.5" y1="175.6953" y2="175.6953"/><text fill="#000000" font-family="sans-serif" font-size="13" lengthAdjust="spacingAndGlyphs" textLength="73" x="270" y="170.6294">plan(query)</text><polygon fill="#A80036" points="274,200.8281,264,204.8281,274,208.8281,270,204.8281" style="stroke: #A80036; stroke-width: 1.0;"/><line style="stroke: #A80036; stroke-width: 1.0; stroke-dasharray: 2.0,2.0;" x1="268" x2="388.5" y1="204.8281" y2="204.8281"/><text fill="#000000" font-family="sans-serif" font-size="13" lengthAdjust="spacingAndGlyphs" textLength="93" x="280" y="199.7622">execution plan</text><polygon fill="#A80036" points="514,229.9609,524,233.9609,514,237.9609,518,233.9609" style="stroke: #A80036; stroke-width: 1.0;"/><line style="stroke: #A80036; stroke-width: 1.0;" x1="263" x2="520" y1="233.9609" y2="233.9609"/><text fill="#000000" font-family="sans-serif" font-size="13" lengthAdjust="spacingAndGlyphs" textLength="88" x="270" y="228.895">execute(plan)</text><polygon fill="#A80036" points="672,259.0938,682,263.0938,672,267.0938,676,263.0938" style="stroke: #A80036; stroke-width: 1.0;"/><line style="stroke: #A80036; stroke-width: 1.0;" x1="526" x2="678" y1="263.0938" y2="263.0938"/><text fill="#000000" font-family="sans-serif" font-size="13" lengthAdjust="spacingAndGlyphs" textLength="134" x="533" y="258.0278">parallel provider calls</text><polygon fill="#A80036" points="537,288.2266,527,292.2266,537,296.2266,533,292.2266" style="stroke: #A80036; stroke-width: 1.0;"/><line style="stroke: #A80036; stroke-width: 1.0; stroke-dasharray: 2.0,2.0;" x1="531" x2="683" y1="292.2266" y2="292.2266"/><text fill="#000000" font-family="sans-serif" font-size="13" lengthAdjust="spacingAndGlyphs" textLength="69" x="543" y="287.1606">raw results</text><polygon fill="#A80036" points="274,317.3594,264,321.3594,274,325.3594,270,321.3594" style="stroke: #A80036; stroke-width: 1.0;"/><line style="stroke: #A80036; stroke-width: 1.0; stroke-dasharray: 2.0,2.0;" x1="268" x2="525" y1="321.3594" y2="321.3594"/><text fill="#000000" font-family="sans-serif" font-size="13" lengthAdjust="spacingAndGlyphs" textLength="118" x="280" y="316.2935">normalized results</text><polygon fill="#A80036" points="776,346.4922,786,350.4922,776,354.4922,780,350.4922" style="stroke: #A80036; stroke-width: 1.0;"/><line style="stroke: #A80036; stroke-width: 1.0;" x1="263" x2="782" y1="350.4922" y2="350.4922"/><text fill="#000000" font-family="sans-serif" font-size="13" lengthAdjust="spacingAndGlyphs" textLength="127" x="270" y="345.4263">deduplicate(results)</text><polygon fill="#A80036" points="274,375.625,264,379.625,274,383.625,270,379.625" style="stroke: #A80036; stroke-width: 1.0;"/><line style="stroke: #A80036; stroke-width: 1.0; stroke-dasharray: 2.0,2.0;" x1="268" x2="787" y1="379.625" y2="379.625"/><text fill="#000000" font-family="sans-serif" font-size="13" lengthAdjust="spacingAndGlyphs" textLength="90" x="280" y="374.5591">unique results</text><polygon fill="#A80036" points="897,404.7578,907,408.7578,897,412.7578,901,408.7578" style="stroke: #A80036; stroke-width: 1.0;"/><line style="stroke: #A80036; stroke-width: 1.0;" x1="263" x2="903" y1="408.7578" y2="408.7578"/><text fill="#000000" font-family="sans-serif" font-size="13" lengthAdjust="spacingAndGlyphs" textLength="109" x="270" y="403.6919">merge metadata</text><polygon fill="#A80036" points="274,433.8906,264,437.8906,274,441.8906,270,437.8906" style="stroke: #A80036; stroke-width: 1.0;"/><line style="stroke: #A80036; stroke-width: 1.0; stroke-dasharray: 2.0,2.0;" x1="268" x2="908" y1="437.8906" y2="437.8906"/><text fill="#000000" font-family="sans-serif" font-size="13" lengthAdjust="spacingAndGlyphs" textLength="76" x="280" y="432.8247">publications</text><polygon fill="#A80036" points="1028,463.0234,1038,467.0234,1028,471.0234,1032,467.0234" style="stroke: #A80036; stroke-width: 1.0;"/><line style="stroke: #A80036; stroke-width: 1.0;" x1="263" x2="1034" y1="467.0234" y2="467.0234"/><text fill="#000000" font-family="sans-serif" font-size="13" lengthAdjust="spacingAndGlyphs" textLength="114" x="270" y="461.9575">rank(publications)</text><polygon fill="#A80036" points="274,492.1563,264,496.1563,274,500.1563,270,496.1563" style="stroke: #A80036; stroke-width: 1.0;"/><line style="stroke: #A80036; stroke-width: 1.0; stroke-dasharray: 2.0,2.0;" x1="268" x2="1039" y1="496.1563" y2="496.1563"/><text fill="#000000" font-family="sans-serif" font-size="13" lengthAdjust="spacingAndGlyphs" textLength="124" x="280" y="491.0903">ranked publications</text><polygon fill="#A80036" points="1162,521.2891,1172,525.2891,1162,529.2891,1166,525.2891" style="stroke: #A80036; stroke-width: 1.0;"/><line style="stroke: #A80036; stroke-width: 1.0;" x1="263" x2="1168" y1="525.2891" y2="525.2891"/><text fill="#000000" font-family="sans-serif" font-size="13" lengthAdjust="spacingAndGlyphs" textLength="76" x="270" y="520.2231">store/enrich</text><polygon fill="#A80036" points="153,550.4219,143,554.4219,153,558.4219,149,554.4219" style="stroke: #A80036; stroke-width: 1.0;"/><line style="stroke: #A80036; stroke-width: 1.0; stroke-dasharray: 2.0,2.0;" x1="147" x2="262" y1="554.4219" y2="554.4219"/><text fill="#000000" font-family="sans-serif" font-size="13" lengthAdjust="spacingAndGlyphs" textLength="43" x="159" y="549.356">results</text><polygon fill="#A80036" points="38,579.5547,28,583.5547,38,587.5547,34,583.5547" style="stroke: #A80036; stroke-width: 1.0;"/><line style="stroke: #A80036; stroke-width: 1.0; stroke-dasharray: 2.0,2.0;" x1="32" x2="141" y1="583.5547" y2="583.5547"/><text fill="#000000" font-family="sans-serif" font-size="13" lengthAdjust="spacingAndGlyphs" textLength="91" x="44" y="578.4888">display results</text><!--MD5=[db2f57a2ea1b90ea849c6c958a1edfa4]
@startuml
actor User
participant "Open WebUI" as UI
participant "Search Engine" as SE
participant "Query Planner" as QP
participant "Provider Manager" as PM
participant "Providers" as P
participant "Deduplicator" as D
participant "Fusion Engine" as F
participant "Ranking Engine" as R
database "Knowledge Base" as KB

User -> UI: Submit query
UI -> SE: search(query)
SE -> QP: plan(query)
QP - -> SE: execution plan
SE -> PM: execute(plan)
PM -> P: parallel provider calls
P - -> PM: raw results
PM - -> SE: normalized results
SE -> D: deduplicate(results)
D - -> SE: unique results
SE -> F: merge metadata
F - -> SE: publications
SE -> R: rank(publications)
R - -> SE: ranked publications
SE -> KB: store/enrich
SE - -> UI: results
UI - -> User: display results
@enduml

PlantUML version 1.2020.02(Sun Mar 01 10:22:07 UTC 2020)
(GPL source distribution)
Java Runtime: OpenJDK Runtime Environment
JVM: OpenJDK 64-Bit Server VM
Java Version: 11.0.31+11-post-1ubuntu1-22.04.2-Ubuntu
Operating System: Linux
Default Encoding: UTF-8
Language: es
Country: ES
--></g></svg>