<?xml version="1.0" encoding="UTF-8" standalone="no"?><svg xmlns="http://www.w3.org/2000/svg" xmlns:xlink="http://www.w3.org/1999/xlink" contentScriptType="application/ecmascript" contentStyleType="text/css" height="400px" preserveAspectRatio="none" style="width:861px;height:400px;" version="1.1" viewBox="0 0 861 400" width="861px" zoomAndPan="magnify"><defs><filter height="300%" id="f1nj7lbjgug6iw" width="300%" x="-1" y="-1"><feGaussianBlur result="blurOut" stdDeviation="2.0"/><feColorMatrix in="blurOut" result="blurOut2" type="matrix" values="0 0 0 0 0 0 0 0 0 0 0 0 0 0 0 0 0 0 .4 0"/><feOffset dx="4.0" dy="4.0" in="blurOut2" result="blurOut3"/><feBlend in="SourceGraphic" in2="blurOut3" mode="normal"/></filter></defs><g><text fill="#000000" font-family="sans-serif" font-size="18" lengthAdjust="spacingAndGlyphs" textLength="148" x="360.5" y="16.708">research_models</text><!--MD5=[c06cee2f39e206243f9de6f6690f87e9]
class FieldValue--><rect fill="#FEFECE" filter="url(#f1nj7lbjgug6iw)" height="150.4375" id="FieldValue" style="stroke: #A80036; stroke-width: 1.5;" width="361" x="27" y="28.9531"/><ellipse cx="171.25" cy="44.9531" fill="#ADD1B2" rx="11" ry="11" style="stroke: #A80036; stroke-width: 1.0;"/><path d="M174.2188,50.5938 Q173.6406,50.8906 173,51.0313 Q172.3594,51.1875 171.6563,51.1875 Q169.1563,51.1875 167.8281,49.5469 Q166.5156,47.8906 166.5156,44.7656 Q166.5156,41.6406 167.8281,39.9844 Q169.1563,38.3281 171.6563,38.3281 Q172.3594,38.3281 173,38.4844 Q173.6563,38.6406 174.2188,38.9375 L174.2188,41.6563 Q173.5938,41.0781 173,40.8125 Q172.4063,40.5313 171.7813,40.5313 Q170.4375,40.5313 169.75,41.6094 Q169.0625,42.6719 169.0625,44.7656 Q169.0625,46.8594 169.75,47.9375 Q170.4375,49 171.7813,49 Q172.4063,49 173,48.7344 Q173.5938,48.4531 174.2188,47.875 L174.2188,50.5938 Z "/><text fill="#000000" font-family="sans-serif" font-size="12" lengthAdjust="spacingAndGlyphs" textLength="64" x="191.75" y="49.1074">FieldValue</text><line style="stroke: #A80036; stroke-width: 1.5;" x1="28" x2="387" y1="60.9531" y2="60.9531"/><text fill="#000000" font-family="sans-serif" font-size="11" lengthAdjust="spacingAndGlyphs" textLength="80" x="33" y="75.1636">-selected: Any</text><text fill="#000000" font-family="sans-serif" font-size="11" lengthAdjust="spacingAndGlyphs" textLength="118" x="33" y="87.9683">-merge_strategy: str</text><text fill="#000000" font-family="sans-serif" font-size="11" lengthAdjust="spacingAndGlyphs" textLength="152" x="33" y="100.7729">-values: list[ProviderValue]</text><line style="stroke: #A80036; stroke-width: 1.5;" x1="28" x2="387" y1="107.3672" y2="107.3672"/><text fill="#000000" font-family="sans-serif" font-size="11" lengthAdjust="spacingAndGlyphs" textLength="349" x="33" y="121.5776">+add(provider: str, value: Any, quality: Optional[float]) -&gt; Any</text><text fill="#000000" font-family="sans-serif" font-size="11" lengthAdjust="spacingAndGlyphs" textLength="127" x="33" y="134.3823">+contributors() -&gt; Any</text><text fill="#000000" font-family="sans-serif" font-size="11" lengthAdjust="spacingAndGlyphs" textLength="159" x="33" y="147.187">+selected_provider() -&gt; Any</text><text fill="#000000" font-family="sans-serif" font-size="11" lengthAdjust="spacingAndGlyphs" textLength="95" x="33" y="159.9917">+to_dict() -&gt; Any</text><text fill="#000000" font-family="sans-serif" font-size="11" lengthAdjust="spacingAndGlyphs" textLength="216" x="33" y="172.7964">+from_dict(cls: Any, data: Any) -&gt; Any</text><!--MD5=[e0e2e0b347aefe305c2180ecbf609bf5]
class ProviderValue--><rect fill="#FEFECE" filter="url(#f1nj7lbjgug6iw)" height="137.6328" id="ProviderValue" style="stroke: #A80036; stroke-width: 1.5;" width="428" x="422.5" y="34.9531"/><ellipse cx="589.25" cy="50.9531" fill="#ADD1B2" rx="11" ry="11" style="stroke: #A80036; stroke-width: 1.0;"/><path d="M592.2188,56.5938 Q591.6406,56.8906 591,57.0313 Q590.3594,57.1875 589.6563,57.1875 Q587.1563,57.1875 585.8281,55.5469 Q584.5156,53.8906 584.5156,50.7656 Q584.5156,47.6406 585.8281,45.9844 Q587.1563,44.3281 589.6563,44.3281 Q590.3594,44.3281 591,44.4844 Q591.6563,44.6406 592.2188,44.9375 L592.2188,47.6563 Q591.5938,47.0781 591,46.8125 Q590.4063,46.5313 589.7813,46.5313 Q588.4375,46.5313 587.75,47.6094 Q587.0625,48.6719 587.0625,50.7656 Q587.0625,52.8594 587.75,53.9375 Q588.4375,55 589.7813,55 Q590.4063,55 591,54.7344 Q591.5938,54.4531 592.2188,53.875 L592.2188,56.5938 Z "/><text fill="#000000" font-family="sans-serif" font-size="12" lengthAdjust="spacingAndGlyphs" textLength="86" x="609.75" y="55.1074">ProviderValue</text><line style="stroke: #A80036; stroke-width: 1.5;" x1="423.5" x2="849.5" y1="66.9531" y2="66.9531"/><text fill="#000000" font-family="sans-serif" font-size="11" lengthAdjust="spacingAndGlyphs" textLength="75" x="428.5" y="81.1636">-provider: str</text><text fill="#000000" font-family="sans-serif" font-size="11" lengthAdjust="spacingAndGlyphs" textLength="62" x="428.5" y="93.9683">-value: Any</text><text fill="#000000" font-family="sans-serif" font-size="11" lengthAdjust="spacingAndGlyphs" textLength="89" x="428.5" y="106.7729">-timestamp: str</text><text fill="#000000" font-family="sans-serif" font-size="11" lengthAdjust="spacingAndGlyphs" textLength="129" x="428.5" y="119.5776">-quality: Optional[float]</text><line style="stroke: #A80036; stroke-width: 1.5;" x1="423.5" x2="849.5" y1="126.1719" y2="126.1719"/><text fill="#000000" font-family="sans-serif" font-size="11" lengthAdjust="spacingAndGlyphs" textLength="416" x="428.5" y="140.3823">+create(cls: Any, provider: str, value: Any, quality: Optional[float]) -&gt; Any</text><text fill="#000000" font-family="sans-serif" font-size="11" lengthAdjust="spacingAndGlyphs" textLength="95" x="428.5" y="153.187">+to_dict() -&gt; Any</text><text fill="#000000" font-family="sans-serif" font-size="11" lengthAdjust="spacingAndGlyphs" textLength="216" x="428.5" y="165.9917">+from_dict(cls: Any, data: Any) -&gt; Any</text><!--MD5=[bfaa0cf1c94f172be725c75ad56c3fba]
class Publication--><rect fill="#FEFECE" filter="url(#f1nj7lbjgug6iw)" height="150.4375" id="Publication" style="stroke: #A80036; stroke-width: 1.5;" width="403" x="6" y="238.9531"/><ellipse cx="168.75" cy="254.9531" fill="#ADD1B2" rx="11" ry="11" style="stroke: #A80036; stroke-width: 1.0;"/><path d="M171.7188,260.5938 Q171.1406,260.8906 170.5,261.0313 Q169.8594,261.1875 169.1563,261.1875 Q166.6563,261.1875 165.3281,259.5469 Q164.0156,257.8906 164.0156,254.7656 Q164.0156,251.6406 165.3281,249.9844 Q166.6563,248.3281 169.1563,248.3281 Q169.8594,248.3281 170.5,248.4844 Q171.1563,248.6406 171.7188,248.9375 L171.7188,251.6563 Q171.0938,251.0781 170.5,250.8125 Q169.9063,250.5313 169.2813,250.5313 Q167.9375,250.5313 167.25,251.6094 Q166.5625,252.6719 166.5625,254.7656 Q166.5625,256.8594 167.25,257.9375 Q167.9375,259 169.2813,259 Q169.9063,259 170.5,258.7344 Q171.0938,258.4531 171.7188,257.875 L171.7188,260.5938 Z "/><text fill="#000000" font-family="sans-serif" font-size="12" lengthAdjust="spacingAndGlyphs" textLength="69" x="189.25" y="259.1074">Publication</text><line style="stroke: #A80036; stroke-width: 1.5;" x1="7" x2="408" y1="270.9531" y2="270.9531"/><text fill="#000000" font-family="sans-serif" font-size="11" lengthAdjust="spacingAndGlyphs" textLength="63" x="12" y="285.1636">-fields: dict</text><line style="stroke: #A80036; stroke-width: 1.5;" x1="7" x2="408" y1="291.7578" y2="291.7578"/><text fill="#000000" font-family="sans-serif" font-size="11" lengthAdjust="spacingAndGlyphs" textLength="130" x="12" y="305.9683">+__post_init__() -&gt; Any</text><text fill="#000000" font-family="sans-serif" font-size="11" lengthAdjust="spacingAndGlyphs" textLength="391" x="12" y="318.7729">+add(provider: Any, field_name: Any, value: Any, quality: Any) -&gt; Any</text><text fill="#000000" font-family="sans-serif" font-size="11" lengthAdjust="spacingAndGlyphs" textLength="166" x="12" y="331.5776">+get(field_name: Any) -&gt; Any</text><text fill="#000000" font-family="sans-serif" font-size="11" lengthAdjust="spacingAndGlyphs" textLength="217" x="12" y="344.3823">+contributors(field_name: Any) -&gt; Any</text><text fill="#000000" font-family="sans-serif" font-size="11" lengthAdjust="spacingAndGlyphs" textLength="249" x="12" y="357.187">+selected_provider(field_name: Any) -&gt; Any</text><text fill="#000000" font-family="sans-serif" font-size="11" lengthAdjust="spacingAndGlyphs" textLength="95" x="12" y="369.9917">+to_dict() -&gt; Any</text><text fill="#000000" font-family="sans-serif" font-size="11" lengthAdjust="spacingAndGlyphs" textLength="216" x="12" y="382.7964">+from_dict(cls: Any, data: Any) -&gt; Any</text><!--MD5=[9b5d0f877834a2789b0b9d9dd80fc610]
link FieldValue to ProviderValue--><!--MD5=[1f835058d7f7ffbed9bbaadfbe8e0100]
link FieldValue to Publication--><!--MD5=[ce2b1c5f91981edcaf879998a8625f11]
@startuml
skinparam classAttributeIconSize 0

title research_models

class FieldValue {
  - selected: Any
  - merge_strategy: str
  - values: list[ProviderValue]
  + add(provider: str, value: Any, quality: Optional[float]) -> Any
  + contributors() -> Any
  + selected_provider() -> Any
  + to_dict() -> Any
  + from_dict(cls: Any, data: Any) -> Any
}

class ProviderValue {
  - provider: str
  - value: Any
  - timestamp: str
  - quality: Optional[float]
  + create(cls: Any, provider: str, value: Any, quality: Optional[float]) -> Any
  + to_dict() -> Any
  + from_dict(cls: Any, data: Any) -> Any
}

class Publication {
  - fields: dict
  + __post_init__() -> Any
  + add(provider: Any, field_name: Any, value: Any, quality: Any) -> Any
  + get(field_name: Any) -> Any
  + contributors(field_name: Any) -> Any
  + selected_provider(field_name: Any) -> Any
  + to_dict() -> Any
  + from_dict(cls: Any, data: Any) -> Any
}


@enduml

PlantUML version 1.2020.02(Sun Mar 01 10:22:07 UTC 2020)
(GPL source distribution)
Java Runtime: OpenJDK Runtime Environment
JVM: OpenJDK 64-Bit Server VM
Java Version: 11.0.31+11-post-1ubuntu1-22.04.2-Ubuntu
Operating System: Linux
Default Encoding: UTF-8
Language: es
Country: ES
--></g></svg>