<?xml version="1.0" encoding="UTF-8" standalone="no"?><svg xmlns="http://www.w3.org/2000/svg" xmlns:xlink="http://www.w3.org/1999/xlink" contentScriptType="application/ecmascript" contentStyleType="text/css" height="534px" preserveAspectRatio="none" style="width:556px;height:534px;" version="1.1" viewBox="0 0 556 534" width="556px" zoomAndPan="magnify"><defs><filter height="300%" id="f1bxiexil6flmk" width="300%" x="-1" y="-1"><feGaussianBlur result="blurOut" stdDeviation="2.0"/><feColorMatrix in="blurOut" result="blurOut2" type="matrix" values="0 0 0 0 0 0 0 0 0 0 0 0 0 0 0 0 0 0 .4 0"/><feOffset dx="4.0" dy="4.0" in="blurOut2" result="blurOut3"/><feBlend in="SourceGraphic" in2="blurOut3" mode="normal"/></filter></defs><g><!--MD5=[047f42b0b3b34dd33a71e2afe70421c6]
cluster User Browser--><polygon fill="#FFFFFF" filter="url(#f1bxiexil6flmk)" points="221,34,231,24,427,24,427,106,417,116,221,116,221,34" style="stroke: #000000; stroke-width: 1.5;"/><line style="stroke: #000000; stroke-width: 1.5;" x1="417" x2="426" y1="34" y2="25"/><line style="stroke: #000000; stroke-width: 1.5;" x1="221" x2="417" y1="34" y2="34"/><line style="stroke: #000000; stroke-width: 1.5;" x1="417" x2="417" y1="34" y2="116"/><text fill="#000000" font-family="sans-serif" font-size="14" font-weight="bold" lengthAdjust="spacingAndGlyphs" textLength="109" x="265.5" y="49.9951">User Browser</text><!--MD5=[c6dc40b35bb91b1de271f489a312aa22]
cluster Application Server--><polygon fill="#FFFFFF" filter="url(#f1bxiexil6flmk)" points="22,150,32,140,426,140,426,414,416,424,22,424,22,150" style="stroke: #000000; stroke-width: 1.5;"/><line style="stroke: #000000; stroke-width: 1.5;" x1="416" x2="425" y1="150" y2="141"/><line style="stroke: #000000; stroke-width: 1.5;" x1="22" x2="416" y1="150" y2="150"/><line style="stroke: #000000; stroke-width: 1.5;" x1="416" x2="416" y1="150" y2="424"/><text fill="#000000" font-family="sans-serif" font-size="14" font-weight="bold" lengthAdjust="spacingAndGlyphs" textLength="145" x="147.5" y="165.9951">Application Server</text><!--MD5=[023fd2aba3d2527ef45c8ae53181d72a]
entity Open WebUI Frontend--><rect fill="#FEFECE" filter="url(#f1bxiexil6flmk)" height="36.2969" style="stroke: #A80036; stroke-width: 1.5;" width="173" x="237.5" y="64"/><rect fill="#FEFECE" height="5" style="stroke: #A80036; stroke-width: 1.5;" width="10" x="232.5" y="69"/><rect fill="#FEFECE" height="5" style="stroke: #A80036; stroke-width: 1.5;" width="10" x="232.5" y="90.2969"/><text fill="#000000" font-family="sans-serif" font-size="14" lengthAdjust="spacingAndGlyphs" textLength="153" x="247.5" y="86.9951">Open WebUI Frontend</text><!--MD5=[18d79838fb7591ba030c106a2e8e8c9f]
entity Open WebUI Backend--><rect fill="#FEFECE" filter="url(#f1bxiexil6flmk)" height="36.2969" style="stroke: #A80036; stroke-width: 1.5;" width="171" x="238.5" y="180"/><rect fill="#FEFECE" height="5" style="stroke: #A80036; stroke-width: 1.5;" width="10" x="233.5" y="185"/><rect fill="#FEFECE" height="5" style="stroke: #A80036; stroke-width: 1.5;" width="10" x="233.5" y="206.2969"/><text fill="#000000" font-family="sans-serif" font-size="14" lengthAdjust="spacingAndGlyphs" textLength="151" x="248.5" y="202.9951">Open WebUI Backend</text><!--MD5=[e1d0fa5772ab5fa491a560b6e494c24e]
entity Research MCP Server--><rect fill="#FEFECE" filter="url(#f1bxiexil6flmk)" height="36.2969" style="stroke: #A80036; stroke-width: 1.5;" width="169" x="174.5" y="276"/><rect fill="#FEFECE" height="5" style="stroke: #A80036; stroke-width: 1.5;" width="10" x="169.5" y="281"/><rect fill="#FEFECE" height="5" style="stroke: #A80036; stroke-width: 1.5;" width="10" x="169.5" y="302.2969"/><text fill="#000000" font-family="sans-serif" font-size="14" lengthAdjust="spacingAndGlyphs" textLength="149" x="184.5" y="298.9951">Research MCP Server</text><!--MD5=[59c5f0afcdcb7ca7603a86880cb1cddc]
entity Research Engine--><rect fill="#FEFECE" filter="url(#f1bxiexil6flmk)" height="36.2969" style="stroke: #A80036; stroke-width: 1.5;" width="138" x="190" y="372"/><rect fill="#FEFECE" height="5" style="stroke: #A80036; stroke-width: 1.5;" width="10" x="185" y="377"/><rect fill="#FEFECE" height="5" style="stroke: #A80036; stroke-width: 1.5;" width="10" x="185" y="398.2969"/><text fill="#000000" font-family="sans-serif" font-size="14" lengthAdjust="spacingAndGlyphs" textLength="118" x="200" y="394.9951">Research Engine</text><!--MD5=[f4dd887080ba66b08ab88f268b7b6425]
entity Background Workers--><rect fill="#FEFECE" filter="url(#f1bxiexil6flmk)" height="36.2969" style="stroke: #A80036; stroke-width: 1.5;" width="165" x="38.5" y="180"/><rect fill="#FEFECE" height="5" style="stroke: #A80036; stroke-width: 1.5;" width="10" x="33.5" y="185"/><rect fill="#FEFECE" height="5" style="stroke: #A80036; stroke-width: 1.5;" width="10" x="33.5" y="206.2969"/><text fill="#000000" font-family="sans-serif" font-size="14" lengthAdjust="spacingAndGlyphs" textLength="145" x="48.5" y="202.9951">Background Workers</text><!--MD5=[f6b3c4ec609d704a8f29c3992fcc8101]
entity PG--><path d="M29.5,478.5 C29.5,468.5 80,468.5 80,468.5 C80,468.5 130.5,468.5 130.5,478.5 L130.5,503.7969 C130.5,513.7969 80,513.7969 80,513.7969 C80,513.7969 29.5,513.7969 29.5,503.7969 L29.5,478.5 " fill="#FEFECE" filter="url(#f1bxiexil6flmk)" style="stroke: #000000; stroke-width: 1.5;"/><path d="M29.5,478.5 C29.5,488.5 80,488.5 80,488.5 C80,488.5 130.5,488.5 130.5,478.5 " fill="none" style="stroke: #000000; stroke-width: 1.5;"/><text fill="#000000" font-family="sans-serif" font-size="14" lengthAdjust="spacingAndGlyphs" textLength="81" x="39.5" y="505.4951">PostgreSQL</text><!--MD5=[f96d690baea4a0823d36c98ba0c3a2b4]
entity Redis--><path d="M180.5,478.5 C180.5,468.5 210,468.5 210,468.5 C210,468.5 239.5,468.5 239.5,478.5 L239.5,503.7969 C239.5,513.7969 210,513.7969 210,513.7969 C210,513.7969 180.5,513.7969 180.5,503.7969 L180.5,478.5 " fill="#FEFECE" filter="url(#f1bxiexil6flmk)" style="stroke: #000000; stroke-width: 1.5;"/><path d="M180.5,478.5 C180.5,488.5 210,488.5 210,488.5 C210,488.5 239.5,488.5 239.5,478.5 " fill="none" style="stroke: #000000; stroke-width: 1.5;"/><text fill="#000000" font-family="sans-serif" font-size="14" lengthAdjust="spacingAndGlyphs" textLength="39" x="190.5" y="505.4951">Redis</text><!--MD5=[0a8b7e9f3a6eb52a0abd8364c6934c48]
entity Qdrant--><path d="M281.5,478.5 C281.5,468.5 315,468.5 315,468.5 C315,468.5 348.5,468.5 348.5,478.5 L348.5,503.7969 C348.5,513.7969 315,513.7969 315,513.7969 C315,513.7969 281.5,513.7969 281.5,503.7969 L281.5,478.5 " fill="#FEFECE" filter="url(#f1bxiexil6flmk)" style="stroke: #000000; stroke-width: 1.5;"/><path d="M281.5,478.5 C281.5,488.5 315,488.5 315,488.5 C315,488.5 348.5,488.5 348.5,478.5 " fill="none" style="stroke: #000000; stroke-width: 1.5;"/><text fill="#000000" font-family="sans-serif" font-size="14" lengthAdjust="spacingAndGlyphs" textLength="47" x="291.5" y="505.4951">Qdrant</text><!--MD5=[fa5f2ca45d7d71a02e00e9182531f689]
entity Providers--><path d="M397.5482,476.4056 C401.0003,471.1773 405.4083,471.7115 407.7298,477.4548 C410.5763,471.085 416.6102,470.8842 420.4412,476.4021 C423.3501,472.044 427.7871,471.7526 430.8955,476.1642 C433.1983,470.4721 438.4752,467.8879 442.9869,473.8779 C446.4228,470.0495 450.5229,469.4341 452.9358,474.9654 C455.7083,468.2301 460.9976,468.9744 464.7397,473.9915 C468.6018,467.3678 472.8633,468.3826 476.9319,473.782 C480.2281,468.3954 484.6358,469.1519 487.783,473.9409 C492.2852,468.6132 495.7525,469.6247 499.278,474.9908 C503.3931,470.1844 506.9525,469.6968 510.0975,475.9406 C514.7569,470.2378 519.111,470.6492 522.4082,477.2982 C525.6457,472.3324 529.0306,472.0426 532.9638,476.5206 C542.6965,478.2459 544.8307,483.8272 540.3097,492.2214 C544.6383,500.1018 543.2439,505.3986 534.0027,507.7773 C531.8597,514.7921 526.1034,514.0888 522.0769,509.7569 C519.1906,515.3461 514.2154,515.3464 511.4461,509.6467 C509.3425,515.7789 504.7059,517.5598 499.6485,512.8654 C495.5141,517.9061 491.7259,518.8204 487.5288,512.9349 C485.307,518.8245 480.4601,520.7431 475.9748,515.228 C473.0176,519.7164 470.0718,520.6847 466.0823,516.3906 C461.7394,522.0973 456.4925,522.3571 453.2382,515.2954 C449.4252,520.7834 444.5378,520.4207 441.5721,514.434 C437.6733,518.2242 432.5416,517.7425 431.3657,511.6281 C427.3765,517.4344 422.1234,516.5076 419.9442,509.9553 C415.7488,515.1244 411.1245,515.1526 407.9688,508.8682 C403.7691,513.0404 400.2097,512.804 396.8716,507.8236 C387.4583,507.5139 385.004,501.1524 388.1977,493.3088 C384.1462,483.6286 386.4094,477.6829 397.5482,476.4056 " fill="#FEFECE" style="stroke: #000000; stroke-width: 1.5;"/><text fill="#000000" font-family="sans-serif" font-size="14" lengthAdjust="spacingAndGlyphs" textLength="123" x="402.5" y="495.9951">External Providers</text><!--MD5=[f4475d57e4e22b4ec46e61d5840e0696]
link Open WebUI Frontend to Open WebUI Backend--><path d="M324,100.31 C324,120.27 324,153.1 324,174.88 " fill="none" id="Open WebUI Frontend-&gt;Open WebUI Backend" style="stroke: #A80036; stroke-width: 1.0;"/><polygon fill="#A80036" points="324,179.9,328,170.9,324,174.9,320,170.9,324,179.9" style="stroke: #A80036; stroke-width: 1.0;"/><!--MD5=[020cabeaa97658bd1129b278a50bd65d]
link Open WebUI Backend to Research MCP Server--><path d="M312.08,216.24 C301.27,231.88 285.29,254.98 273.69,271.75 " fill="none" id="Open WebUI Backend-&gt;Research MCP Server" style="stroke: #A80036; stroke-width: 1.0;"/><polygon fill="#A80036" points="270.85,275.87,279.257,270.7395,273.6923,271.7565,272.6754,266.1918,270.85,275.87" style="stroke: #A80036; stroke-width: 1.0;"/><!--MD5=[d63943ab878000ee8398cc9d9af5a57c]
link Research MCP Server to Research Engine--><path d="M259,312.24 C259,327.48 259,349.81 259,366.46 " fill="none" id="Research MCP Server-&gt;Research Engine" style="stroke: #A80036; stroke-width: 1.0;"/><polygon fill="#A80036" points="259,371.87,263,362.87,259,366.87,255,362.87,259,371.87" style="stroke: #A80036; stroke-width: 1.0;"/><!--MD5=[477e4e700e43192c3f9278079bc4cb96]
link Research Engine to PG--><path d="M228.23,408.02 C199.46,423.93 156.19,447.86 123.81,465.77 " fill="none" id="Research Engine-&gt;PG" style="stroke: #A80036; stroke-width: 1.0;"/><polygon fill="#A80036" points="119.12,468.36,128.9333,467.5239,123.5002,465.9488,125.0753,460.5156,119.12,468.36" style="stroke: #A80036; stroke-width: 1.0;"/><!--MD5=[089211e9d6dbc1d84ade01bf8dbd541b]
link Research Engine to Redis--><path d="M250.46,408.24 C242.9,423.54 231.73,446.1 223.04,463.66 " fill="none" id="Research Engine-&gt;Redis" style="stroke: #A80036; stroke-width: 1.0;"/><polygon fill="#A80036" points="220.66,468.47,228.2305,462.1703,222.8732,463.9865,221.0569,458.6291,220.66,468.47" style="stroke: #A80036; stroke-width: 1.0;"/><!--MD5=[16de3beb92f08677c5945b56ea52282e]
link Research Engine to Qdrant--><path d="M268.75,408.24 C277.48,423.67 290.39,446.49 300.35,464.11 " fill="none" id="Research Engine-&gt;Qdrant" style="stroke: #A80036; stroke-width: 1.0;"/><polygon fill="#A80036" points="302.82,468.47,301.8833,458.6658,300.3639,464.1148,294.9149,462.5955,302.82,468.47" style="stroke: #A80036; stroke-width: 1.0;"/><!--MD5=[b65cf0793e2cd02b3dfbac87a55cb657]
link Research Engine to Providers--><path d="M294.24,408.02 C327,423.84 376.17,447.58 413.17,465.45 " fill="none" id="Research Engine-&gt;Providers" style="stroke: #A80036; stroke-width: 1.0;"/><polygon fill="#A80036" points="418.08,467.82,411.732,460.2898,413.5825,465.6355,408.2368,467.4859,418.08,467.82" style="stroke: #A80036; stroke-width: 1.0;"/><!--MD5=[54b350d6513fd5d44eb8c8322183ebf0]
link Background Workers to PG--><path d="M113.82,216.08 C107.7,231.46 99.24,254.83 95,276 C81.69,342.4 79.72,422.44 79.7,463.24 " fill="none" id="Background Workers-&gt;PG" style="stroke: #A80036; stroke-width: 1.0;"/><polygon fill="#A80036" points="79.7,468.5,83.6743,459.4886,79.6857,463.5,75.6743,459.5115,79.7,468.5" style="stroke: #A80036; stroke-width: 1.0;"/><!--MD5=[5004d16866c23412d0fb56facdf1530c]
link Background Workers to Redis--><path d="M122.59,216.02 C126.71,255.39 139.76,355.27 172,432 C176.69,443.16 183.56,454.51 190.18,464.17 " fill="none" id="Background Workers-&gt;Redis" style="stroke: #A80036; stroke-width: 1.0;"/><polygon fill="#A80036" points="193.19,468.48,191.3035,458.8135,190.3217,464.3845,184.7507,463.4027,193.19,468.48" style="stroke: #A80036; stroke-width: 1.0;"/><!--MD5=[d6a4784d889d940e237d9477194f1c3f]
link Background Workers to Qdrant--><path d="M203.54,214.72 C265.21,228.34 341.98,249.93 361,276 C402.78,333.29 359.22,420.75 332.53,463.97 " fill="none" id="Background Workers-&gt;Qdrant" style="stroke: #A80036; stroke-width: 1.0;"/><polygon fill="#A80036" points="329.84,468.26,338.002,462.748,332.49,464.02,331.218,458.508,329.84,468.26" style="stroke: #A80036; stroke-width: 1.0;"/><!--MD5=[2db0dbfd3a12be0b3568753d3ee3979d]
link Background Workers to Providers--><path d="M203.79,213.49 C273.71,227.29 366.68,249.79 394,276 C446.82,326.69 459.82,417.74 462.99,462.98 " fill="none" id="Background Workers-&gt;Providers" style="stroke: #A80036; stroke-width: 1.0;"/><polygon fill="#A80036" points="463.32,468,466.7195,458.7564,462.9912,463.0108,458.7368,459.2825,463.32,468" style="stroke: #A80036; stroke-width: 1.0;"/><!--MD5=[203d001d03e25ded1ee3eed9296a3b21]
@startuml
node "User Browser" {
  [Open WebUI Frontend]
}

node "Application Server" {
  [Open WebUI Backend]
  [Research MCP Server]
  [Research Engine]
  [Background Workers]
}

database "PostgreSQL" as PG
database "Redis" as Redis
database "Qdrant" as Qdrant
cloud "External Providers" as Providers

[Open WebUI Frontend] - -> [Open WebUI Backend]
[Open WebUI Backend] - -> [Research MCP Server]
[Research MCP Server] - -> [Research Engine]
[Research Engine] - -> PG
[Research Engine] - -> Redis
[Research Engine] - -> Qdrant
[Research Engine] - -> Providers
[Background Workers] - -> PG
[Background Workers] - -> Redis
[Background Workers] - -> Qdrant
[Background Workers] - -> Providers
@enduml

PlantUML version 1.2020.02(Sun Mar 01 10:22:07 UTC 2020)
(GPL source distribution)
Java Runtime: OpenJDK Runtime Environment
JVM: OpenJDK 64-Bit Server VM
Java Version: 11.0.31+11-post-1ubuntu1-22.04.2-Ubuntu
Operating System: Linux
Default Encoding: UTF-8
Language: es
Country: ES
--></g></svg>