<?xml version="1.0" encoding="UTF-8" standalone="no"?><svg xmlns="http://www.w3.org/2000/svg" xmlns:xlink="http://www.w3.org/1999/xlink" contentScriptType="application/ecmascript" contentStyleType="text/css" height="603px" preserveAspectRatio="none" style="width:424px;height:603px;" version="1.1" viewBox="0 0 424 603" width="424px" zoomAndPan="magnify"><defs><filter height="300%" id="fdgzwpxlf8aj9" width="300%" x="-1" y="-1"><feGaussianBlur result="blurOut" stdDeviation="2.0"/><feColorMatrix in="blurOut" result="blurOut2" type="matrix" values="0 0 0 0 0 0 0 0 0 0 0 0 0 0 0 0 0 0 .4 0"/><feOffset dx="4.0" dy="4.0" in="blurOut2" result="blurOut3"/><feBlend in="SourceGraphic" in2="blurOut3" mode="normal"/></filter></defs><g><!--MD5=[e584325484b0406d4080720ece69cb5c]
cluster Research Engine--><polygon fill="#FFFFFF" filter="url(#fdgzwpxlf8aj9)" points="22,24,160,24,167,46.2969,402,46.2969,402,591,22,591,22,24" style="stroke: #000000; stroke-width: 1.5;"/><line style="stroke: #000000; stroke-width: 1.5;" x1="22" x2="167" y1="46.2969" y2="46.2969"/><text fill="#000000" font-family="sans-serif" font-size="14" font-weight="bold" lengthAdjust="spacingAndGlyphs" textLength="132" x="26" y="38.9951">Research Engine</text><!--MD5=[ae331763ecc40fdaf5fcd0d33eb10fa7]
entity Query Planner--><rect fill="#FEFECE" filter="url(#fdgzwpxlf8aj9)" height="36.2969" style="stroke: #A80036; stroke-width: 1.5;" width="117" x="254.5" y="59"/><rect fill="#FEFECE" height="5" style="stroke: #A80036; stroke-width: 1.5;" width="10" x="249.5" y="64"/><rect fill="#FEFECE" height="5" style="stroke: #A80036; stroke-width: 1.5;" width="10" x="249.5" y="85.2969"/><text fill="#000000" font-family="sans-serif" font-size="14" lengthAdjust="spacingAndGlyphs" textLength="97" x="264.5" y="81.9951">Query Planner</text><!--MD5=[1373e469256af6e4449762d98a6bca76]
entity Search Engine--><rect fill="#FEFECE" filter="url(#fdgzwpxlf8aj9)" height="36.2969" style="stroke: #A80036; stroke-width: 1.5;" width="120" x="253" y="155"/><rect fill="#FEFECE" height="5" style="stroke: #A80036; stroke-width: 1.5;" width="10" x="248" y="160"/><rect fill="#FEFECE" height="5" style="stroke: #A80036; stroke-width: 1.5;" width="10" x="248" y="181.2969"/><text fill="#000000" font-family="sans-serif" font-size="14" lengthAdjust="spacingAndGlyphs" textLength="100" x="263" y="177.9951">Search Engine</text><!--MD5=[75082af2db446d962636a250016d7a0d]
entity Provider Manager--><rect fill="#FEFECE" filter="url(#fdgzwpxlf8aj9)" height="36.2969" style="stroke: #A80036; stroke-width: 1.5;" width="140" x="100" y="251"/><rect fill="#FEFECE" height="5" style="stroke: #A80036; stroke-width: 1.5;" width="10" x="95" y="256"/><rect fill="#FEFECE" height="5" style="stroke: #A80036; stroke-width: 1.5;" width="10" x="95" y="277.2969"/><text fill="#000000" font-family="sans-serif" font-size="14" lengthAdjust="spacingAndGlyphs" textLength="120" x="110" y="273.9951">Provider Manager</text><!--MD5=[e4e810c1515a7e30c1d568849bb2f6c6]
entity Deduplicator--><rect fill="#FEFECE" filter="url(#fdgzwpxlf8aj9)" height="36.2969" style="stroke: #A80036; stroke-width: 1.5;" width="108" x="275" y="251"/><rect fill="#FEFECE" height="5" style="stroke: #A80036; stroke-width: 1.5;" width="10" x="270" y="256"/><rect fill="#FEFECE" height="5" style="stroke: #A80036; stroke-width: 1.5;" width="10" x="270" y="277.2969"/><text fill="#000000" font-family="sans-serif" font-size="14" lengthAdjust="spacingAndGlyphs" textLength="88" x="285" y="273.9951">Deduplicator</text><!--MD5=[1dd9ccdf71f945a5aa099790eabd6655]
entity Fusion Engine--><rect fill="#FEFECE" filter="url(#fdgzwpxlf8aj9)" height="36.2969" style="stroke: #A80036; stroke-width: 1.5;" width="118" x="268" y="347"/><rect fill="#FEFECE" height="5" style="stroke: #A80036; stroke-width: 1.5;" width="10" x="263" y="352"/><rect fill="#FEFECE" height="5" style="stroke: #A80036; stroke-width: 1.5;" width="10" x="263" y="373.2969"/><text fill="#000000" font-family="sans-serif" font-size="14" lengthAdjust="spacingAndGlyphs" textLength="98" x="278" y="369.9951">Fusion Engine</text><!--MD5=[d2d544a58e9a62256eefe076c1385da3]
entity Ranking Engine--><rect fill="#FEFECE" filter="url(#fdgzwpxlf8aj9)" height="36.2969" style="stroke: #A80036; stroke-width: 1.5;" width="128" x="253" y="443"/><rect fill="#FEFECE" height="5" style="stroke: #A80036; stroke-width: 1.5;" width="10" x="248" y="448"/><rect fill="#FEFECE" height="5" style="stroke: #A80036; stroke-width: 1.5;" width="10" x="248" y="469.2969"/><text fill="#000000" font-family="sans-serif" font-size="14" lengthAdjust="spacingAndGlyphs" textLength="108" x="263" y="465.9951">Ranking Engine</text><!--MD5=[d7cdc3d78ab2a4b9df6980c764c00f5d]
entity Metadata Updater--><rect fill="#FEFECE" filter="url(#fdgzwpxlf8aj9)" height="36.2969" style="stroke: #A80036; stroke-width: 1.5;" width="143" x="62.5" y="155"/><rect fill="#FEFECE" height="5" style="stroke: #A80036; stroke-width: 1.5;" width="10" x="57.5" y="160"/><rect fill="#FEFECE" height="5" style="stroke: #A80036; stroke-width: 1.5;" width="10" x="57.5" y="181.2969"/><text fill="#000000" font-family="sans-serif" font-size="14" lengthAdjust="spacingAndGlyphs" textLength="123" x="72.5" y="177.9951">Metadata Updater</text><!--MD5=[522f91f82b2cbe4b5e3d32d96327ef45]
entity Recommendation Engine--><rect fill="#FEFECE" filter="url(#fdgzwpxlf8aj9)" height="36.2969" style="stroke: #A80036; stroke-width: 1.5;" width="195" x="37.5" y="347"/><rect fill="#FEFECE" height="5" style="stroke: #A80036; stroke-width: 1.5;" width="10" x="32.5" y="352"/><rect fill="#FEFECE" height="5" style="stroke: #A80036; stroke-width: 1.5;" width="10" x="32.5" y="373.2969"/><text fill="#000000" font-family="sans-serif" font-size="14" lengthAdjust="spacingAndGlyphs" textLength="175" x="47.5" y="369.9951">Recommendation Engine</text><!--MD5=[3c7d20723f05d8bdabf9261d9d06fcfb]
entity Semantic Search--><rect fill="#FEFECE" filter="url(#fdgzwpxlf8aj9)" height="36.2969" style="stroke: #A80036; stroke-width: 1.5;" width="136" x="72" y="443"/><rect fill="#FEFECE" height="5" style="stroke: #A80036; stroke-width: 1.5;" width="10" x="67" y="448"/><rect fill="#FEFECE" height="5" style="stroke: #A80036; stroke-width: 1.5;" width="10" x="67" y="469.2969"/><text fill="#000000" font-family="sans-serif" font-size="14" lengthAdjust="spacingAndGlyphs" textLength="116" x="82" y="465.9951">Semantic Search</text><!--MD5=[39dbc26f3cddf95a5e055814dc7d875f]
entity Repository Layer--><rect fill="#FEFECE" filter="url(#fdgzwpxlf8aj9)" height="36.2969" style="stroke: #A80036; stroke-width: 1.5;" width="134" x="161" y="539"/><rect fill="#FEFECE" height="5" style="stroke: #A80036; stroke-width: 1.5;" width="10" x="156" y="544"/><rect fill="#FEFECE" height="5" style="stroke: #A80036; stroke-width: 1.5;" width="10" x="156" y="565.2969"/><text fill="#000000" font-family="sans-serif" font-size="14" lengthAdjust="spacingAndGlyphs" textLength="114" x="171" y="561.9951">Repository Layer</text><!--MD5=[642fa17cb081d26b37f453746f975945]
link Query Planner to Search Engine--><path d="M313,95.24 C313,110.48 313,132.81 313,149.46 " fill="none" id="Query Planner-&gt;Search Engine" style="stroke: #A80036; stroke-width: 1.0;"/><polygon fill="#A80036" points="313,154.87,317,145.87,313,149.87,309,145.87,313,154.87" style="stroke: #A80036; stroke-width: 1.0;"/><!--MD5=[cc1be7c4df95ac02b763c0d8b533adaa]
link Search Engine to Provider Manager--><path d="M287.1,191.02 C262.76,207.03 226.3,230.99 200.55,247.92 " fill="none" id="Search Engine-&gt;Provider Manager" style="stroke: #A80036; stroke-width: 1.0;"/><polygon fill="#A80036" points="196.19,250.79,205.9038,249.1644,200.3612,248.033,201.4926,242.4904,196.19,250.79" style="stroke: #A80036; stroke-width: 1.0;"/><!--MD5=[9db71b91a565830f38e2db9d32731cbd]
link Search Engine to Deduplicator--><path d="M315.93,191.24 C318.55,206.61 322.4,229.2 325.24,245.89 " fill="none" id="Search Engine-&gt;Deduplicator" style="stroke: #A80036; stroke-width: 1.0;"/><polygon fill="#A80036" points="326.08,250.87,328.5325,241.3314,325.2511,245.9392,320.6433,242.6577,326.08,250.87" style="stroke: #A80036; stroke-width: 1.0;"/><!--MD5=[16547c88a4549c0d9b4a3bb6a39aacdf]
link Deduplicator to Fusion Engine--><path d="M328.63,287.24 C328.31,302.48 327.83,324.81 327.48,341.46 " fill="none" id="Deduplicator-&gt;Fusion Engine" style="stroke: #A80036; stroke-width: 1.0;"/><polygon fill="#A80036" points="327.36,346.87,331.5646,337.9638,327.4743,341.8713,323.5667,337.7809,327.36,346.87" style="stroke: #A80036; stroke-width: 1.0;"/><!--MD5=[781b74bbdad4b026ed85202a9454d456]
link Fusion Engine to Ranking Engine--><path d="M325.17,383.24 C323.53,398.61 321.13,421.2 319.35,437.89 " fill="none" id="Fusion Engine-&gt;Ranking Engine" style="stroke: #A80036; stroke-width: 1.0;"/><polygon fill="#A80036" points="318.82,442.87,323.7491,434.3433,319.3486,437.898,315.794,433.4975,318.82,442.87" style="stroke: #A80036; stroke-width: 1.0;"/><!--MD5=[b2ddaa6f726042984e4ab7acb9d73406]
link Ranking Engine to Repository Layer--><path d="M300.68,479.24 C285.75,495.01 263.63,518.37 247.72,535.17 " fill="none" id="Ranking Engine-&gt;Repository Layer" style="stroke: #A80036; stroke-width: 1.0;"/><polygon fill="#A80036" points="244.22,538.87,253.3164,535.0944,247.6615,535.2429,247.513,529.588,244.22,538.87" style="stroke: #A80036; stroke-width: 1.0;"/><!--MD5=[d3b46efaa176f1e9e034a7036f839c8c]
link Metadata Updater to Provider Manager--><path d="M140.6,191.24 C146.49,206.61 155.14,229.2 161.53,245.89 " fill="none" id="Metadata Updater-&gt;Provider Manager" style="stroke: #A80036; stroke-width: 1.0;"/><polygon fill="#A80036" points="163.44,250.87,163.9527,241.0345,161.6499,246.2014,156.483,243.8986,163.44,250.87" style="stroke: #A80036; stroke-width: 1.0;"/><!--MD5=[1dac289edb27f6b0b38bdf8aad5e3945]
link Metadata Updater to Fusion Engine--><path d="M115.35,191.23 C92.52,214.44 59.51,256.36 82,287 C93.03,302.03 194.2,330.28 263.04,348.07 " fill="none" id="Metadata Updater-&gt;Fusion Engine" style="stroke: #A80036; stroke-width: 1.0;"/><polygon fill="#A80036" points="267.94,349.33,260.2168,343.2183,263.0969,348.0871,258.2282,350.9672,267.94,349.33" style="stroke: #A80036; stroke-width: 1.0;"/><!--MD5=[35de7412d8c672bfaf4a4f26a73a0b6c]
link Recommendation Engine to Semantic Search--><path d="M135.92,383.24 C136.73,398.48 137.92,420.81 138.8,437.46 " fill="none" id="Recommendation Engine-&gt;Semantic Search" style="stroke: #A80036; stroke-width: 1.0;"/><polygon fill="#A80036" points="139.09,442.87,142.5948,433.6659,138.8182,437.8774,134.6067,434.1008,139.09,442.87" style="stroke: #A80036; stroke-width: 1.0;"/><!--MD5=[aa3c7243538b59c6c1f7a58b16742e48]
link Semantic Search to Repository Layer--><path d="M156.14,479.24 C170.9,495.01 192.77,518.37 208.5,535.17 " fill="none" id="Semantic Search-&gt;Repository Layer" style="stroke: #A80036; stroke-width: 1.0;"/><polygon fill="#A80036" points="211.96,538.87,208.7239,529.568,208.5408,535.2219,202.8869,535.0387,211.96,538.87" style="stroke: #A80036; stroke-width: 1.0;"/><!--MD5=[bd9ce2b81352b8c2899be5cb60697403]
@startuml
package "Research Engine" {
  [Query Planner]
  [Search Engine]
  [Provider Manager]
  [Deduplicator]
  [Fusion Engine]
  [Ranking Engine]
  [Metadata Updater]
  [Recommendation Engine]
  [Semantic Search]
  [Repository Layer]
}

[Query Planner] - -> [Search Engine]
[Search Engine] - -> [Provider Manager]
[Search Engine] - -> [Deduplicator]
[Deduplicator] - -> [Fusion Engine]
[Fusion Engine] - -> [Ranking Engine]
[Ranking Engine] - -> [Repository Layer]
[Metadata Updater] - -> [Provider Manager]
[Metadata Updater] - -> [Fusion Engine]
[Recommendation Engine] - -> [Semantic Search]
[Semantic Search] - -> [Repository Layer]
@enduml

PlantUML version 1.2020.02(Sun Mar 01 10:22:07 UTC 2020)
(GPL source distribution)
Java Runtime: OpenJDK Runtime Environment
JVM: OpenJDK 64-Bit Server VM
Java Version: 11.0.31+11-post-1ubuntu1-22.04.2-Ubuntu
Operating System: Linux
Default Encoding: UTF-8
Language: es
Country: ES
--></g></svg>